<svg width="420" height="213" viewBox="0 0 420 213" fill="none" xmlns="http://www.w3.org/2000/svg">
<g clip-path="url(#clip0_2_140)">
<rect width="77" height="42" rx="10" fill="#6EC282"/>
<path d="M20.7727 19H19.3636C19.2803 18.5947 19.1345 18.2386 18.9261 17.9318C18.7216 17.625 18.4716 17.3674 18.1761 17.1591C17.8845 16.947 17.5606 16.7879 17.2045 16.6818C16.8485 16.5758 16.4773 16.5227 16.0909 16.5227C15.3864 16.5227 14.7481 16.7008 14.1761 17.0568C13.608 17.4129 13.1553 17.9375 12.8182 18.6307C12.4848 19.3239 12.3182 20.1742 12.3182 21.1818C12.3182 22.1894 12.4848 23.0398 12.8182 23.733C13.1553 24.4261 13.608 24.9508 14.1761 25.3068C14.7481 25.6629 15.3864 25.8409 16.0909 25.8409C16.4773 25.8409 16.8485 25.7879 17.2045 25.6818C17.5606 25.5758 17.8845 25.4186 18.1761 25.2102C18.4716 24.9981 18.7216 24.7386 18.9261 24.4318C19.1345 24.1212 19.2803 23.7652 19.3636 23.3636H20.7727C20.6667 23.9583 20.4735 24.4905 20.1932 24.9602C19.9129 25.4299 19.5644 25.8295 19.1477 26.1591C18.7311 26.4848 18.2633 26.733 17.7443 26.9034C17.2292 27.0739 16.678 27.1591 16.0909 27.1591C15.0985 27.1591 14.2159 26.9167 13.4432 26.4318C12.6705 25.947 12.0625 25.2576 11.6193 24.3636C11.1761 23.4697 10.9545 22.4091 10.9545 21.1818C10.9545 19.9545 11.1761 18.8939 11.6193 18C12.0625 17.1061 12.6705 16.4167 13.4432 15.9318C14.2159 15.447 15.0985 15.2045 16.0909 15.2045C16.678 15.2045 17.2292 15.2898 17.7443 15.4602C18.2633 15.6307 18.7311 15.8807 19.1477 16.2102C19.5644 16.536 19.9129 16.9337 20.1932 17.4034C20.4735 17.8693 20.6667 18.4015 20.7727 19Z" fill="black"/>
<path d="M36 7V35" stroke="black" stroke-linecap="round"/>
<path d="M49.3431 26.6569L60.6568 15.3432" stroke="black" stroke-width="1.5" stroke-linecap="round"/>
<path d="M49.3431 15.3431L60.6568 26.6568" stroke="black" stroke-width="1.5" stroke-linecap="round"/>
<rect x="90" width="88" height="42" rx="10" fill="#D5EDD1"/>
<path d="M110.773 19H109.364C109.28 18.5947 109.134 18.2386 108.926 17.9318C108.722 17.625 108.472 17.3674 108.176 17.1591C107.884 16.947 107.561 16.7879 107.205 16.6818C106.848 16.5758 106.477 16.5227 106.091 16.5227C105.386 16.5227 104.748 16.7008 104.176 17.0568C103.608 17.4129 103.155 17.9375 102.818 18.6307C102.485 19.3239 102.318 20.1742 102.318 21.1818C102.318 22.1894 102.485 23.0398 102.818 23.733C103.155 24.4261 103.608 24.9508 104.176 25.3068C104.748 25.6629 105.386 25.8409 106.091 25.8409C106.477 25.8409 106.848 25.7879 107.205 25.6818C107.561 25.5758 107.884 25.4186 108.176 25.2102C108.472 24.9981 108.722 24.7386 108.926 24.4318C109.134 24.1212 109.28 23.7652 109.364 23.3636H110.773C110.667 23.9583 110.473 24.4905 110.193 24.9602C109.913 25.4299 109.564 25.8295 109.148 26.1591C108.731 26.4848 108.263 26.733 107.744 26.9034C107.229 27.0739 106.678 27.1591 106.091 27.1591C105.098 27.1591 104.216 26.9167 103.443 26.4318C102.67 25.947 102.063 25.2576 101.619 24.3636C101.176 23.4697 100.955 22.4091 100.955 21.1818C100.955 19.9545 101.176 18.8939 101.619 18C102.063 17.1061 102.67 16.4167 103.443 15.9318C104.216 15.447 105.098 15.2045 106.091 15.2045C106.678 15.2045 107.229 15.2898 107.744 15.4602C108.263 15.6307 108.731 15.8807 109.148 16.2102C109.564 16.536 109.913 16.9337 110.193 17.4034C110.473 17.8693 110.667 18.4015 110.773 19ZM117.209 27L119.118 15.3636H120.254L118.345 27H117.209ZM111.913 23.7727L112.095 22.6364H120.777L120.595 23.7727H111.913ZM113.118 27L115.027 15.3636H116.163L114.254 27H113.118ZM112.595 19.7273L112.777 18.5909H121.459L121.277 19.7273H112.595Z" fill="black"/>
<path d="M137 7V35" stroke="black" stroke-linecap="round"/>
<path d="M148 21L164 21" stroke="black" stroke-width="1.5" stroke-linecap="round"/>
<path d="M156 13L156 29" stroke="black" stroke-width="1.5" stroke-linecap="round"/>
<rect x="191" width="98" height="42" rx="10" fill="#6EC282"/>
<path d="M211.773 19H210.364C210.28 18.5947 210.134 18.2386 209.926 17.9318C209.722 17.625 209.472 17.3674 209.176 17.1591C208.884 16.947 208.561 16.7879 208.205 16.6818C207.848 16.5758 207.477 16.5227 207.091 16.5227C206.386 16.5227 205.748 16.7008 205.176 17.0568C204.608 17.4129 204.155 17.9375 203.818 18.6307C203.485 19.3239 203.318 20.1742 203.318 21.1818C203.318 22.1894 203.485 23.0398 203.818 23.733C204.155 24.4261 204.608 24.9508 205.176 25.3068C205.748 25.6629 206.386 25.8409 207.091 25.8409C207.477 25.8409 207.848 25.7879 208.205 25.6818C208.561 25.5758 208.884 25.4186 209.176 25.2102C209.472 24.9981 209.722 24.7386 209.926 24.4318C210.134 24.1212 210.28 23.7652 210.364 23.3636H211.773C211.667 23.9583 211.473 24.4905 211.193 24.9602C210.913 25.4299 210.564 25.8295 210.148 26.1591C209.731 26.4848 209.263 26.733 208.744 26.9034C208.229 27.0739 207.678 27.1591 207.091 27.1591C206.098 27.1591 205.216 26.9167 204.443 26.4318C203.67 25.947 203.063 25.2576 202.619 24.3636C202.176 23.4697 201.955 22.4091 201.955 21.1818C201.955 19.9545 202.176 18.8939 202.619 18C203.063 17.1061 203.67 16.4167 204.443 15.9318C205.216 15.447 206.098 15.2045 207.091 15.2045C207.678 15.2045 208.229 15.2898 208.744 15.4602C209.263 15.6307 209.731 15.8807 210.148 16.2102C210.564 16.536 210.913 16.9337 211.193 17.4034C211.473 17.8693 211.667 18.4015 211.773 19ZM217.277 24.9545V17.4545H218.55V24.9545H217.277ZM214.163 21.8409V20.5682H221.663V21.8409H214.163ZM227.824 24.9545V17.4545H229.097V24.9545H227.824ZM224.71 21.8409V20.5682H232.21V21.8409H224.71Z" fill="black"/>
<path d="M248 7V35" stroke="black" stroke-linecap="round"/>
<path d="M261.343 26.6569L272.657 15.3432" stroke="black" stroke-width="1.5" stroke-linecap="round"/>
<path d="M261.343 15.3431L272.657 26.6568" stroke="black" stroke-width="1.5" stroke-linecap="round"/>
<rect x="253" y="171" width="109" height="42" rx="10" fill="#D5EDD1"/>
<path d="M264.409 198V186.364H268.341C269.25 186.364 269.996 186.519 270.58 186.83C271.163 187.136 271.595 187.559 271.875 188.097C272.155 188.634 272.295 189.246 272.295 189.932C272.295 190.617 272.155 191.225 271.875 191.756C271.595 192.286 271.165 192.703 270.585 193.006C270.006 193.305 269.265 193.455 268.364 193.455H265.182V192.182H268.318C268.939 192.182 269.439 192.091 269.818 191.909C270.201 191.727 270.477 191.47 270.648 191.136C270.822 190.799 270.909 190.398 270.909 189.932C270.909 189.466 270.822 189.059 270.648 188.71C270.473 188.362 270.195 188.093 269.812 187.903C269.43 187.71 268.924 187.614 268.295 187.614H265.818V198H264.409ZM269.886 192.773L272.75 198H271.114L268.295 192.773H269.886ZM282.28 186.364H283.689V194.068C283.689 194.864 283.501 195.574 283.126 196.199C282.755 196.82 282.231 197.311 281.553 197.67C280.875 198.027 280.079 198.205 279.166 198.205C278.253 198.205 277.458 198.027 276.78 197.67C276.102 197.311 275.575 196.82 275.2 196.199C274.829 195.574 274.643 194.864 274.643 194.068V186.364H276.053V193.955C276.053 194.523 276.178 195.028 276.428 195.472C276.678 195.911 277.034 196.258 277.496 196.511C277.962 196.761 278.518 196.886 279.166 196.886C279.814 196.886 280.371 196.761 280.837 196.511C281.303 196.258 281.659 195.911 281.905 195.472C282.155 195.028 282.28 194.523 282.28 193.955V186.364ZM292.866 189.273C292.798 188.697 292.522 188.25 292.037 187.932C291.552 187.614 290.957 187.455 290.253 187.455C289.738 187.455 289.287 187.538 288.901 187.705C288.518 187.871 288.219 188.1 288.003 188.392C287.791 188.684 287.685 189.015 287.685 189.386C287.685 189.697 287.759 189.964 287.906 190.188C288.058 190.407 288.251 190.591 288.486 190.739C288.721 190.883 288.967 191.002 289.224 191.097C289.482 191.187 289.719 191.261 289.935 191.318L291.116 191.636C291.42 191.716 291.757 191.826 292.128 191.966C292.503 192.106 292.861 192.297 293.202 192.54C293.546 192.778 293.83 193.085 294.054 193.46C294.277 193.835 294.389 194.295 294.389 194.841C294.389 195.47 294.224 196.038 293.895 196.545C293.569 197.053 293.092 197.456 292.463 197.756C291.838 198.055 291.079 198.205 290.185 198.205C289.351 198.205 288.63 198.07 288.02 197.801C287.414 197.532 286.937 197.157 286.588 196.676C286.243 196.195 286.048 195.636 286.003 195H287.457C287.495 195.439 287.643 195.803 287.901 196.091C288.162 196.375 288.491 196.587 288.889 196.727C289.291 196.864 289.723 196.932 290.185 196.932C290.723 196.932 291.205 196.845 291.634 196.67C292.062 196.492 292.401 196.246 292.651 195.932C292.901 195.614 293.026 195.242 293.026 194.818C293.026 194.432 292.918 194.117 292.702 193.875C292.486 193.633 292.202 193.436 291.849 193.284C291.497 193.133 291.116 193 290.707 192.886L289.276 192.477C288.366 192.216 287.647 191.843 287.116 191.358C286.586 190.873 286.321 190.239 286.321 189.455C286.321 188.803 286.497 188.235 286.849 187.75C287.205 187.261 287.683 186.883 288.281 186.614C288.884 186.341 289.556 186.205 290.298 186.205C291.048 186.205 291.715 186.339 292.298 186.608C292.882 186.873 293.344 187.237 293.685 187.699C294.029 188.161 294.211 188.686 294.23 189.273H292.866ZM296.07 187.614V186.364H304.797V187.614H301.138V198H299.729V187.614H296.07Z" fill="black"/>
<path d="M321 178V206" stroke="black" stroke-linecap="round"/>
<path d="M332 192L348 192" stroke="black" stroke-width="1.5" stroke-linecap="round"/>
<path d="M340 184L340 200" stroke="black" stroke-width="1.5" stroke-linecap="round"/>
<rect x="106" y="171" width="134" height="42" rx="10" fill="#6EC282"/>
<path d="M117.409 198V186.364H121.341C122.254 186.364 123 186.528 123.58 186.858C124.163 187.184 124.595 187.625 124.875 188.182C125.155 188.739 125.295 189.36 125.295 190.045C125.295 190.731 125.155 191.354 124.875 191.915C124.598 192.475 124.17 192.922 123.591 193.256C123.011 193.585 122.269 193.75 121.364 193.75H118.545V192.5H121.318C121.943 192.5 122.445 192.392 122.824 192.176C123.203 191.96 123.477 191.669 123.648 191.301C123.822 190.93 123.909 190.511 123.909 190.045C123.909 189.58 123.822 189.163 123.648 188.795C123.477 188.428 123.201 188.14 122.818 187.932C122.436 187.72 121.928 187.614 121.295 187.614H118.818V198H117.409ZM126.565 186.364H128.179L131.406 191.795H131.543L134.77 186.364H136.384L132.179 193.205V198H130.77V193.205L126.565 186.364ZM138.304 187.614V186.364H147.031V187.614H143.372V198H141.963V187.614H138.304ZM149.206 198V186.364H150.615V191.545H156.82V186.364H158.229V198H156.82V192.795H150.615V198H149.206ZM170.868 192.182C170.868 193.409 170.646 194.47 170.203 195.364C169.76 196.258 169.152 196.947 168.379 197.432C167.607 197.917 166.724 198.159 165.732 198.159C164.739 198.159 163.857 197.917 163.084 197.432C162.311 196.947 161.703 196.258 161.26 195.364C160.817 194.47 160.595 193.409 160.595 192.182C160.595 190.955 160.817 189.894 161.26 189C161.703 188.106 162.311 187.417 163.084 186.932C163.857 186.447 164.739 186.205 165.732 186.205C166.724 186.205 167.607 186.447 168.379 186.932C169.152 187.417 169.76 188.106 170.203 189C170.646 189.894 170.868 190.955 170.868 192.182ZM169.504 192.182C169.504 191.174 169.336 190.324 168.999 189.631C168.665 188.938 168.213 188.413 167.641 188.057C167.072 187.701 166.436 187.523 165.732 187.523C165.027 187.523 164.389 187.701 163.817 188.057C163.249 188.413 162.796 188.938 162.459 189.631C162.125 190.324 161.959 191.174 161.959 192.182C161.959 193.189 162.125 194.04 162.459 194.733C162.796 195.426 163.249 195.951 163.817 196.307C164.389 196.663 165.027 196.841 165.732 196.841C166.436 196.841 167.072 196.663 167.641 196.307C168.213 195.951 168.665 195.426 168.999 194.733C169.336 194.04 169.504 193.189 169.504 192.182ZM182.464 186.364V198H181.101L174.76 188.864H174.646V198H173.237V186.364H174.601L180.964 195.523H181.078V186.364H182.464Z" fill="black"/>
<path d="M199 178V206" stroke="black" stroke-linecap="round"/>
<path d="M212.343 197.657L223.657 186.343" stroke="black" stroke-width="1.5" stroke-linecap="round"/>
<path d="M212.343 186.343L223.657 197.657" stroke="black" stroke-width="1.5" stroke-linecap="round"/>
<rect y="171" width="93" height="42" rx="10" fill="#D5EDD1"/>
<path d="M11.4091 198V186.364H15.3409C16.2538 186.364 17 186.528 17.5795 186.858C18.1629 187.184 18.5947 187.625 18.875 188.182C19.1553 188.739 19.2955 189.36 19.2955 190.045C19.2955 190.731 19.1553 191.354 18.875 191.915C18.5985 192.475 18.1705 192.922 17.5909 193.256C17.0114 193.585 16.2689 193.75 15.3636 193.75H12.5455V192.5H15.3182C15.9432 192.5 16.4451 192.392 16.8239 192.176C17.2027 191.96 17.4773 191.669 17.6477 191.301C17.822 190.93 17.9091 190.511 17.9091 190.045C17.9091 189.58 17.822 189.163 17.6477 188.795C17.4773 188.428 17.2008 188.14 16.8182 187.932C16.4356 187.72 15.928 187.614 15.2955 187.614H12.8182V198H11.4091ZM21.5653 198V186.364H22.9744V191.545H29.179V186.364H30.5881V198H29.179V192.795H22.9744V198H21.5653ZM33.4091 198V186.364H37.3409C38.2538 186.364 39 186.528 39.5795 186.858C40.1629 187.184 40.5947 187.625 40.875 188.182C41.1553 188.739 41.2955 189.36 41.2955 190.045C41.2955 190.731 41.1553 191.354 40.875 191.915C40.5985 192.475 40.1705 192.922 39.5909 193.256C39.0114 193.585 38.2689 193.75 37.3636 193.75H34.5455V192.5H37.3182C37.9432 192.5 38.4451 192.392 38.8239 192.176C39.2027 191.96 39.4773 191.669 39.6477 191.301C39.822 190.93 39.9091 190.511 39.9091 190.045C39.9091 189.58 39.822 189.163 39.6477 188.795C39.4773 188.428 39.2008 188.14 38.8182 187.932C38.4356 187.72 37.928 187.614 37.2955 187.614H34.8182V198H33.4091Z" fill="black"/>
<path d="M52 178V206" stroke="black" stroke-linecap="round"/>
<path d="M63 192L79 192" stroke="black" stroke-width="1.5" stroke-linecap="round"/>
<path d="M71 184L71 200" stroke="black" stroke-width="1.5" stroke-linecap="round"/>
<rect x="288" y="114" width="98" height="42" rx="10" fill="#D5EDD1"/>
<path d="M299.409 141V129.364H300.818V139.75H306.227V141H299.409ZM316.045 129.364H317.455V137.068C317.455 137.864 317.267 138.574 316.892 139.199C316.521 139.82 315.996 140.311 315.318 140.67C314.64 141.027 313.845 141.205 312.932 141.205C312.019 141.205 311.223 141.027 310.545 140.67C309.867 140.311 309.341 139.82 308.966 139.199C308.595 138.574 308.409 137.864 308.409 137.068V129.364H309.818V136.955C309.818 137.523 309.943 138.028 310.193 138.472C310.443 138.911 310.799 139.258 311.261 139.511C311.727 139.761 312.284 139.886 312.932 139.886C313.58 139.886 314.136 139.761 314.602 139.511C315.068 139.258 315.424 138.911 315.67 138.472C315.92 138.028 316.045 137.523 316.045 136.955V129.364ZM320.746 141H319.268L323.541 129.364H324.996L329.268 141H327.791L324.314 131.205H324.223L320.746 141ZM321.291 136.455H327.246V137.705H321.291V136.455Z" fill="black"/>
<path d="M345 121V149" stroke="black" stroke-linecap="round"/>
<path d="M356 135L372 135" stroke="black" stroke-width="1.5" stroke-linecap="round"/>
<path d="M364 127L364 143" stroke="black" stroke-width="1.5" stroke-linecap="round"/>
<rect x="117" y="114" width="158" height="42" rx="10" fill="#6EC282"/>
<path d="M132.864 129.364H134.273V137.682C134.273 138.424 134.136 139.055 133.864 139.574C133.591 140.093 133.206 140.487 132.71 140.756C132.214 141.025 131.629 141.159 130.955 141.159C130.318 141.159 129.752 141.044 129.256 140.812C128.759 140.578 128.369 140.244 128.085 139.812C127.801 139.381 127.659 138.867 127.659 138.273H129.045C129.045 138.602 129.127 138.89 129.29 139.136C129.456 139.379 129.684 139.568 129.972 139.705C130.259 139.841 130.587 139.909 130.955 139.909C131.36 139.909 131.705 139.824 131.989 139.653C132.273 139.483 132.489 139.233 132.636 138.903C132.788 138.57 132.864 138.163 132.864 137.682V129.364ZM137.574 141H136.097L140.369 129.364H141.824L146.097 141H144.619L141.142 131.205H141.051L137.574 141ZM138.119 136.455H144.074V137.705H138.119V136.455ZM147.293 129.364L150.747 139.159H150.884L154.338 129.364H155.815L151.543 141H150.088L145.815 129.364H147.293ZM157.105 141H155.628L159.901 129.364H161.355L165.628 141H164.151L160.673 131.205H160.582L157.105 141ZM157.651 136.455H163.605V137.705H157.651V136.455ZM173.804 132.273C173.736 131.697 173.459 131.25 172.974 130.932C172.49 130.614 171.895 130.455 171.19 130.455C170.675 130.455 170.224 130.538 169.838 130.705C169.455 130.871 169.156 131.1 168.94 131.392C168.728 131.684 168.622 132.015 168.622 132.386C168.622 132.697 168.696 132.964 168.844 133.188C168.995 133.407 169.188 133.591 169.423 133.739C169.658 133.883 169.904 134.002 170.162 134.097C170.42 134.187 170.656 134.261 170.872 134.318L172.054 134.636C172.357 134.716 172.694 134.826 173.065 134.966C173.44 135.106 173.798 135.297 174.139 135.54C174.484 135.778 174.768 136.085 174.991 136.46C175.215 136.835 175.327 137.295 175.327 137.841C175.327 138.47 175.162 139.038 174.832 139.545C174.507 140.053 174.029 140.456 173.401 140.756C172.776 141.055 172.016 141.205 171.122 141.205C170.289 141.205 169.567 141.07 168.957 140.801C168.351 140.532 167.874 140.157 167.526 139.676C167.181 139.195 166.986 138.636 166.94 138H168.395C168.433 138.439 168.58 138.803 168.838 139.091C169.099 139.375 169.429 139.587 169.827 139.727C170.228 139.864 170.66 139.932 171.122 139.932C171.66 139.932 172.143 139.845 172.571 139.67C172.999 139.492 173.338 139.246 173.588 138.932C173.838 138.614 173.963 138.242 173.963 137.818C173.963 137.432 173.855 137.117 173.639 136.875C173.423 136.633 173.139 136.436 172.787 136.284C172.435 136.133 172.054 136 171.645 135.886L170.213 135.477C169.304 135.216 168.584 134.843 168.054 134.358C167.524 133.873 167.259 133.239 167.259 132.455C167.259 131.803 167.435 131.235 167.787 130.75C168.143 130.261 168.62 129.883 169.219 129.614C169.821 129.341 170.493 129.205 171.236 129.205C171.986 129.205 172.652 129.339 173.236 129.608C173.819 129.873 174.281 130.237 174.622 130.699C174.967 131.161 175.149 131.686 175.168 132.273H173.804ZM187.007 133H185.598C185.515 132.595 185.369 132.239 185.161 131.932C184.956 131.625 184.706 131.367 184.411 131.159C184.119 130.947 183.795 130.788 183.439 130.682C183.083 130.576 182.712 130.523 182.325 130.523C181.621 130.523 180.982 130.701 180.411 131.057C179.842 131.413 179.39 131.938 179.053 132.631C178.719 133.324 178.553 134.174 178.553 135.182C178.553 136.189 178.719 137.04 179.053 137.733C179.39 138.426 179.842 138.951 180.411 139.307C180.982 139.663 181.621 139.841 182.325 139.841C182.712 139.841 183.083 139.788 183.439 139.682C183.795 139.576 184.119 139.419 184.411 139.21C184.706 138.998 184.956 138.739 185.161 138.432C185.369 138.121 185.515 137.765 185.598 137.364H187.007C186.901 137.958 186.708 138.491 186.428 138.96C186.147 139.43 185.799 139.83 185.382 140.159C184.965 140.485 184.498 140.733 183.979 140.903C183.464 141.074 182.912 141.159 182.325 141.159C181.333 141.159 180.45 140.917 179.678 140.432C178.905 139.947 178.297 139.258 177.854 138.364C177.411 137.47 177.189 136.409 177.189 135.182C177.189 133.955 177.411 132.894 177.854 132C178.297 131.106 178.905 130.417 179.678 129.932C180.45 129.447 181.333 129.205 182.325 129.205C182.912 129.205 183.464 129.29 183.979 129.46C184.498 129.631 184.965 129.881 185.382 130.21C185.799 130.536 186.147 130.934 186.428 131.403C186.708 131.869 186.901 132.402 187.007 133ZM189.284 141V129.364H193.216C194.125 129.364 194.871 129.519 195.455 129.83C196.038 130.136 196.47 130.559 196.75 131.097C197.03 131.634 197.17 132.246 197.17 132.932C197.17 133.617 197.03 134.225 196.75 134.756C196.47 135.286 196.04 135.703 195.46 136.006C194.881 136.305 194.14 136.455 193.239 136.455H190.057V135.182H193.193C193.814 135.182 194.314 135.091 194.693 134.909C195.076 134.727 195.352 134.47 195.523 134.136C195.697 133.799 195.784 133.398 195.784 132.932C195.784 132.466 195.697 132.059 195.523 131.71C195.348 131.362 195.07 131.093 194.688 130.903C194.305 130.71 193.799 130.614 193.17 130.614H190.693V141H189.284ZM194.761 135.773L197.625 141H195.989L193.17 135.773H194.761ZM200.928 129.364V141H199.518V129.364H200.928ZM203.753 141V129.364H207.685C208.598 129.364 209.344 129.528 209.923 129.858C210.507 130.184 210.938 130.625 211.219 131.182C211.499 131.739 211.639 132.36 211.639 133.045C211.639 133.731 211.499 134.354 211.219 134.915C210.942 135.475 210.514 135.922 209.935 136.256C209.355 136.585 208.613 136.75 207.707 136.75H204.889V135.5H207.662C208.287 135.5 208.789 135.392 209.168 135.176C209.546 134.96 209.821 134.669 209.991 134.301C210.166 133.93 210.253 133.511 210.253 133.045C210.253 132.58 210.166 132.163 209.991 131.795C209.821 131.428 209.545 131.14 209.162 130.932C208.779 130.72 208.272 130.614 207.639 130.614H205.162V141H203.753ZM213.273 130.614V129.364H222V130.614H218.341V141H216.932V130.614H213.273Z" fill="black"/>
<path d="M234 121V149" stroke="black" stroke-linecap="round"/>
<path d="M247.343 140.657L258.657 129.343" stroke="black" stroke-width="1.5" stroke-linecap="round"/>
<path d="M247.343 129.343L258.657 140.657" stroke="black" stroke-width="1.5" stroke-linecap="round"/>
<rect y="114" width="104" height="42" rx="10" fill="#6EC282"/>
<path d="M15.8636 129.364H17.2727V137.682C17.2727 138.424 17.1364 139.055 16.8636 139.574C16.5909 140.093 16.2064 140.487 15.7102 140.756C15.214 141.025 14.6288 141.159 13.9545 141.159C13.3182 141.159 12.7519 141.044 12.2557 140.812C11.7595 140.578 11.3693 140.244 11.0852 139.812C10.8011 139.381 10.6591 138.867 10.6591 138.273H12.0455C12.0455 138.602 12.1269 138.89 12.2898 139.136C12.4564 139.379 12.6837 139.568 12.9716 139.705C13.2595 139.841 13.5871 139.909 13.9545 139.909C14.3598 139.909 14.7045 139.824 14.9886 139.653C15.2727 139.483 15.4886 139.233 15.6364 138.903C15.7879 138.57 15.8636 138.163 15.8636 137.682V129.364ZM20.5739 141H19.0966L23.3693 129.364H24.8239L29.0966 141H27.6193L24.142 131.205H24.0511L20.5739 141ZM21.1193 136.455H27.0739V137.705H21.1193V136.455ZM30.2926 129.364L33.7472 139.159H33.8835L37.3381 129.364H38.8153L34.5426 141H33.0881L28.8153 129.364H30.2926ZM40.1051 141H38.6278L42.9006 129.364H44.3551L48.6278 141H47.1506L43.6733 131.205H43.5824L40.1051 141ZM40.6506 136.455H46.6051V137.705H40.6506V136.455Z" fill="black"/>
<path d="M63 121V149" stroke="black" stroke-linecap="round"/>
<path d="M76.3431 140.657L87.6568 129.343" stroke="black" stroke-width="1.5" stroke-linecap="round"/>
<path d="M76.3431 129.343L87.6568 140.657" stroke="black" stroke-width="1.5" stroke-linecap="round"/>
<rect x="213" y="57" width="122" height="42" rx="10" fill="#6EC282"/>
<path d="M224.409 84V72.3636H225.818V77.5455H232.023V72.3636H233.432V84H232.023V78.7955H225.818V84H224.409ZM235.616 73.6136V72.3636H244.344V73.6136H240.685V84H239.276V73.6136H235.616ZM246.518 72.3636H248.2L252.155 82.0227H252.291L256.246 72.3636H257.928V84H256.609V75.1591H256.496L252.859 84H251.587L247.95 75.1591H247.837V84H246.518V72.3636ZM260.753 84V72.3636H262.162V82.75H267.571V84H260.753ZM273.185 84.1591C272.518 84.1591 271.918 84.0265 271.384 83.7614C270.849 83.4962 270.421 83.1326 270.099 82.6705C269.777 82.2083 269.601 81.6818 269.571 81.0909H270.935C270.988 81.6174 271.226 82.053 271.651 82.3977C272.079 82.7386 272.59 82.9091 273.185 82.9091C273.662 82.9091 274.086 82.7973 274.457 82.5739C274.832 82.3504 275.126 82.0436 275.338 81.6534C275.554 81.2595 275.662 80.8144 275.662 80.3182C275.662 79.8106 275.55 79.358 275.327 78.9602C275.107 78.5587 274.804 78.2424 274.418 78.0114C274.031 77.7803 273.59 77.6629 273.094 77.6591C272.738 77.6553 272.372 77.7102 271.997 77.8239C271.622 77.9337 271.313 78.0758 271.071 78.25L269.753 78.0909L270.457 72.3636H276.503V73.6136H271.639L271.23 77.0455H271.298C271.537 76.8561 271.836 76.6989 272.196 76.5739C272.556 76.4489 272.931 76.3864 273.321 76.3864C274.033 76.3864 274.668 76.5568 275.224 76.8977C275.785 77.2348 276.224 77.697 276.543 78.2841C276.865 78.8712 277.026 79.5417 277.026 80.2955C277.026 81.0379 276.859 81.7008 276.526 82.2841C276.196 82.8636 275.741 83.322 275.162 83.6591C274.582 83.9924 273.923 84.1591 273.185 84.1591Z" fill="black"/>
<path d="M294 64V92" stroke="black" stroke-linecap="round"/>
<path d="M307.343 83.6569L318.657 72.3431" stroke="black" stroke-width="1.5" stroke-linecap="round"/>
<path d="M307.343 72.3431L318.657 83.6568" stroke="black" stroke-width="1.5" stroke-linecap="round"/>
<rect x="110" y="57" width="90" height="42" rx="10" fill="#D5EDD1"/>
<path d="M129.364 76C129.239 75.6174 129.074 75.2746 128.869 74.9716C128.669 74.6648 128.428 74.4034 128.148 74.1875C127.871 73.9716 127.557 73.8068 127.205 73.6932C126.852 73.5795 126.466 73.5227 126.045 73.5227C125.356 73.5227 124.729 73.7008 124.165 74.0568C123.6 74.4129 123.152 74.9375 122.818 75.6307C122.485 76.3239 122.318 77.1742 122.318 78.1818C122.318 79.1894 122.487 80.0398 122.824 80.733C123.161 81.4261 123.617 81.9508 124.193 82.3068C124.769 82.6629 125.417 82.8409 126.136 82.8409C126.803 82.8409 127.39 82.6989 127.898 82.4148C128.409 82.1269 128.807 81.7216 129.091 81.1989C129.379 80.6723 129.523 80.053 129.523 79.3409L129.955 79.4318H126.455V78.1818H130.886V79.4318C130.886 80.3902 130.682 81.2235 130.273 81.9318C129.867 82.6402 129.307 83.1894 128.591 83.5795C127.879 83.9659 127.061 84.1591 126.136 84.1591C125.106 84.1591 124.201 83.9167 123.42 83.4318C122.644 82.947 122.038 82.2576 121.602 81.3636C121.17 80.4697 120.955 79.4091 120.955 78.1818C120.955 77.2614 121.078 76.4337 121.324 75.6989C121.574 74.9602 121.926 74.3314 122.381 73.8125C122.835 73.2936 123.373 72.8958 123.994 72.6193C124.616 72.3428 125.299 72.2045 126.045 72.2045C126.659 72.2045 127.231 72.2973 127.761 72.483C128.295 72.6648 128.771 72.9242 129.188 73.2614C129.608 73.5947 129.958 73.9943 130.239 74.4602C130.519 74.9223 130.712 75.4356 130.818 76H129.364ZM143.118 78.1818C143.118 79.4091 142.896 80.4697 142.453 81.3636C142.01 82.2576 141.402 82.947 140.629 83.4318C139.857 83.9167 138.974 84.1591 137.982 84.1591C136.989 84.1591 136.107 83.9167 135.334 83.4318C134.561 82.947 133.953 82.2576 133.51 81.3636C133.067 80.4697 132.845 79.4091 132.845 78.1818C132.845 76.9545 133.067 75.8939 133.51 75C133.953 74.1061 134.561 73.4167 135.334 72.9318C136.107 72.447 136.989 72.2045 137.982 72.2045C138.974 72.2045 139.857 72.447 140.629 72.9318C141.402 73.4167 142.01 74.1061 142.453 75C142.896 75.8939 143.118 76.9545 143.118 78.1818ZM141.754 78.1818C141.754 77.1742 141.586 76.3239 141.249 75.6307C140.915 74.9375 140.463 74.4129 139.891 74.0568C139.322 73.7008 138.686 73.5227 137.982 73.5227C137.277 73.5227 136.639 73.7008 136.067 74.0568C135.499 74.4129 135.046 74.9375 134.709 75.6307C134.375 76.3239 134.209 77.1742 134.209 78.1818C134.209 79.1894 134.375 80.0398 134.709 80.733C135.046 81.4261 135.499 81.9508 136.067 82.3068C136.639 82.6629 137.277 82.8409 137.982 82.8409C138.686 82.8409 139.322 82.6629 139.891 82.3068C140.463 81.9508 140.915 81.4261 141.249 80.733C141.586 80.0398 141.754 79.1894 141.754 78.1818Z" fill="black"/>
<path d="M159 64V92" stroke="black" stroke-linecap="round"/>
<path d="M170 78L186 78" stroke="black" stroke-width="1.5" stroke-linecap="round"/>
<path d="M178 70L178 86" stroke="black" stroke-width="1.5" stroke-linecap="round"/>
<rect y="57" width="97" height="42" rx="10" fill="#6EC282"/>
<path d="M20.7727 76H19.3636C19.2803 75.5947 19.1345 75.2386 18.9261 74.9318C18.7216 74.625 18.4716 74.3674 18.1761 74.1591C17.8845 73.947 17.5606 73.7879 17.2045 73.6818C16.8485 73.5758 16.4773 73.5227 16.0909 73.5227C15.3864 73.5227 14.7481 73.7008 14.1761 74.0568C13.608 74.4129 13.1553 74.9375 12.8182 75.6307C12.4848 76.3239 12.3182 77.1742 12.3182 78.1818C12.3182 79.1894 12.4848 80.0398 12.8182 80.733C13.1553 81.4261 13.608 81.9508 14.1761 82.3068C14.7481 82.6629 15.3864 82.8409 16.0909 82.8409C16.4773 82.8409 16.8485 82.7879 17.2045 82.6818C17.5606 82.5758 17.8845 82.4186 18.1761 82.2102C18.4716 81.9981 18.7216 81.7386 18.9261 81.4318C19.1345 81.1212 19.2803 80.7652 19.3636 80.3636H20.7727C20.6667 80.9583 20.4735 81.4905 20.1932 81.9602C19.9129 82.4299 19.5644 82.8295 19.1477 83.1591C18.7311 83.4848 18.2633 83.733 17.7443 83.9034C17.2292 84.0739 16.678 84.1591 16.0909 84.1591C15.0985 84.1591 14.2159 83.9167 13.4432 83.4318C12.6705 82.947 12.0625 82.2576 11.6193 81.3636C11.1761 80.4697 10.9545 79.4091 10.9545 78.1818C10.9545 76.9545 11.1761 75.8939 11.6193 75C12.0625 74.1061 12.6705 73.4167 13.4432 72.9318C14.2159 72.447 15.0985 72.2045 16.0909 72.2045C16.678 72.2045 17.2292 72.2898 17.7443 72.4602C18.2633 72.6307 18.7311 72.8807 19.1477 73.2102C19.5644 73.536 19.9129 73.9337 20.1932 74.4034C20.4735 74.8693 20.6667 75.4015 20.7727 76ZM29.4134 75.2727C29.3452 74.697 29.0687 74.25 28.5838 73.9318C28.099 73.6136 27.5043 73.4545 26.7997 73.4545C26.2846 73.4545 25.8338 73.5379 25.4474 73.7045C25.0649 73.8712 24.7656 74.1004 24.5497 74.392C24.3376 74.6837 24.2315 75.0152 24.2315 75.3864C24.2315 75.697 24.3054 75.964 24.4531 76.1875C24.6046 76.4072 24.7978 76.5909 25.0327 76.7386C25.2675 76.8826 25.5137 77.0019 25.7713 77.0966C26.0289 77.1875 26.2656 77.2614 26.4815 77.3182L27.6634 77.6364C27.9664 77.7159 28.3035 77.8258 28.6747 77.9659C29.0497 78.1061 29.4077 78.2973 29.7486 78.5398C30.0933 78.7784 30.3774 79.0852 30.6009 79.4602C30.8243 79.8352 30.9361 80.2955 30.9361 80.8409C30.9361 81.4697 30.7713 82.0379 30.4418 82.5455C30.116 83.053 29.6387 83.4564 29.0099 83.7557C28.3849 84.0549 27.6255 84.2045 26.7315 84.2045C25.8982 84.2045 25.1766 84.0701 24.5668 83.8011C23.9607 83.5322 23.4834 83.1572 23.1349 82.6761C22.7902 82.1951 22.5952 81.6364 22.5497 81H24.0043C24.0421 81.4394 24.1899 81.803 24.4474 82.0909C24.7088 82.375 25.0384 82.5871 25.4361 82.7273C25.8376 82.8636 26.2694 82.9318 26.7315 82.9318C27.2694 82.9318 27.7524 82.8447 28.1804 82.6705C28.6084 82.4924 28.9474 82.2462 29.1974 81.9318C29.4474 81.6136 29.5724 81.2424 29.5724 80.8182C29.5724 80.4318 29.4645 80.1174 29.2486 79.875C29.0327 79.6326 28.7486 79.4356 28.3963 79.2841C28.044 79.1326 27.6634 79 27.2543 78.8864L25.8224 78.4773C24.9134 78.2159 24.1937 77.8428 23.6634 77.358C23.133 76.8731 22.8679 76.2386 22.8679 75.4545C22.8679 74.803 23.044 74.2348 23.3963 73.75C23.7524 73.2614 24.2296 72.8826 24.8281 72.6136C25.4304 72.3409 26.1027 72.2045 26.8452 72.2045C27.5952 72.2045 28.2618 72.339 28.8452 72.608C29.4285 72.8731 29.8906 73.2367 30.2315 73.6989C30.5762 74.161 30.758 74.6856 30.777 75.2727H29.4134ZM39.6165 75.2727C39.5483 74.697 39.2718 74.25 38.7869 73.9318C38.3021 73.6136 37.7074 73.4545 37.0028 73.4545C36.4877 73.4545 36.0369 73.5379 35.6506 73.7045C35.268 73.8712 34.9688 74.1004 34.7528 74.392C34.5407 74.6837 34.4347 75.0152 34.4347 75.3864C34.4347 75.697 34.5085 75.964 34.6562 76.1875C34.8078 76.4072 35.0009 76.5909 35.2358 76.7386C35.4706 76.8826 35.7169 77.0019 35.9744 77.0966C36.232 77.1875 36.4688 77.2614 36.6847 77.3182L37.8665 77.6364C38.1695 77.7159 38.5066 77.8258 38.8778 77.9659C39.2528 78.1061 39.6108 78.2973 39.9517 78.5398C40.2964 78.7784 40.5805 79.0852 40.804 79.4602C41.0275 79.8352 41.1392 80.2955 41.1392 80.8409C41.1392 81.4697 40.9744 82.0379 40.6449 82.5455C40.3191 83.053 39.8419 83.4564 39.2131 83.7557C38.5881 84.0549 37.8286 84.2045 36.9347 84.2045C36.1013 84.2045 35.3797 84.0701 34.7699 83.8011C34.1638 83.5322 33.6866 83.1572 33.3381 82.6761C32.9934 82.1951 32.7983 81.6364 32.7528 81H34.2074C34.2453 81.4394 34.393 81.803 34.6506 82.0909C34.9119 82.375 35.2415 82.5871 35.6392 82.7273C36.0407 82.8636 36.4725 82.9318 36.9347 82.9318C37.4725 82.9318 37.9555 82.8447 38.3835 82.6705C38.8116 82.4924 39.1506 82.2462 39.4006 81.9318C39.6506 81.6136 39.7756 81.2424 39.7756 80.8182C39.7756 80.4318 39.6676 80.1174 39.4517 79.875C39.2358 79.6326 38.9517 79.4356 38.5994 79.2841C38.2472 79.1326 37.8665 79 37.4574 78.8864L36.0256 78.4773C35.1165 78.2159 34.3968 77.8428 33.8665 77.358C33.3362 76.8731 33.071 76.2386 33.071 75.4545C33.071 74.803 33.2472 74.2348 33.5994 73.75C33.9555 73.2614 34.4328 72.8826 35.0312 72.6136C35.6335 72.3409 36.3059 72.2045 37.0483 72.2045C37.7983 72.2045 38.465 72.339 39.0483 72.608C39.6316 72.8731 40.0938 73.2367 40.4347 73.6989C40.7794 74.161 40.9612 74.6856 40.9801 75.2727H39.6165Z" fill="black"/>
<path d="M56 64V92" stroke="black" stroke-linecap="round"/>
<path d="M69.3431 83.6569L80.6568 72.3431" stroke="black" stroke-width="1.5" stroke-linecap="round"/>
<path d="M69.3431 72.3431L80.6568 83.6568" stroke="black" stroke-width="1.5" stroke-linecap="round"/>
<rect x="302" width="118" height="42" rx="10" fill="#D5EDD1"/>
<path d="M322.773 19H321.364C321.28 18.5947 321.134 18.2386 320.926 17.9318C320.722 17.625 320.472 17.3674 320.176 17.1591C319.884 16.947 319.561 16.7879 319.205 16.6818C318.848 16.5758 318.477 16.5227 318.091 16.5227C317.386 16.5227 316.748 16.7008 316.176 17.0568C315.608 17.4129 315.155 17.9375 314.818 18.6307C314.485 19.3239 314.318 20.1742 314.318 21.1818C314.318 22.1894 314.485 23.0398 314.818 23.733C315.155 24.4261 315.608 24.9508 316.176 25.3068C316.748 25.6629 317.386 25.8409 318.091 25.8409C318.477 25.8409 318.848 25.7879 319.205 25.6818C319.561 25.5758 319.884 25.4186 320.176 25.2102C320.472 24.9981 320.722 24.7386 320.926 24.4318C321.134 24.1212 321.28 23.7652 321.364 23.3636H322.773C322.667 23.9583 322.473 24.4905 322.193 24.9602C321.913 25.4299 321.564 25.8295 321.148 26.1591C320.731 26.4848 320.263 26.733 319.744 26.9034C319.229 27.0739 318.678 27.1591 318.091 27.1591C317.098 27.1591 316.216 26.9167 315.443 26.4318C314.67 25.947 314.063 25.2576 313.619 24.3636C313.176 23.4697 312.955 22.4091 312.955 21.1818C312.955 19.9545 313.176 18.8939 313.619 18C314.063 17.1061 314.67 16.4167 315.443 15.9318C316.216 15.447 317.098 15.2045 318.091 15.2045C318.678 15.2045 319.229 15.2898 319.744 15.4602C320.263 15.6307 320.731 15.8807 321.148 16.2102C321.564 16.536 321.913 16.9337 322.193 17.4034C322.473 17.8693 322.667 18.4015 322.773 19ZM324.868 27V18.2727H326.163V19.5909H326.254C326.413 19.1591 326.701 18.8087 327.118 18.5398C327.535 18.2708 328.004 18.1364 328.527 18.1364C328.625 18.1364 328.749 18.1383 328.896 18.142C329.044 18.1458 329.156 18.1515 329.232 18.1591V19.5227C329.186 19.5114 329.082 19.4943 328.919 19.4716C328.76 19.4451 328.591 19.4318 328.413 19.4318C327.989 19.4318 327.61 19.5208 327.277 19.6989C326.947 19.8731 326.686 20.1155 326.493 20.4261C326.304 20.733 326.209 21.0833 326.209 21.4773V27H324.868ZM331.95 30.2727C331.723 30.2727 331.52 30.2538 331.342 30.2159C331.164 30.1818 331.041 30.1477 330.973 30.1136L331.314 28.9318C331.64 29.0152 331.928 29.0455 332.178 29.0227C332.428 29 332.649 28.8883 332.842 28.6875C333.039 28.4905 333.219 28.1705 333.382 27.7273L333.632 27.0455L330.405 18.2727H331.859L334.268 25.2273H334.359L336.768 18.2727H338.223L334.518 28.2727C334.352 28.7235 334.145 29.0966 333.899 29.392C333.653 29.6913 333.367 29.9129 333.041 30.0568C332.719 30.2008 332.356 30.2727 331.95 30.2727ZM346.175 20.2273L344.97 20.5682C344.894 20.3674 344.783 20.1723 344.635 19.983C344.491 19.7898 344.294 19.6307 344.044 19.5057C343.794 19.3807 343.474 19.3182 343.084 19.3182C342.55 19.3182 342.105 19.4413 341.749 19.6875C341.396 19.9299 341.22 20.2386 341.22 20.6136C341.22 20.947 341.341 21.2102 341.584 21.4034C341.826 21.5966 342.205 21.7576 342.72 21.8864L344.016 22.2045C344.796 22.3939 345.377 22.6837 345.76 23.0739C346.143 23.4602 346.334 23.9583 346.334 24.5682C346.334 25.0682 346.19 25.5152 345.902 25.9091C345.618 26.303 345.22 26.6136 344.709 26.8409C344.197 27.0682 343.603 27.1818 342.925 27.1818C342.035 27.1818 341.298 26.9886 340.714 26.6023C340.131 26.2159 339.762 25.6515 339.607 24.9091L340.879 24.5909C341 25.0606 341.23 25.4129 341.567 25.6477C341.908 25.8826 342.353 26 342.902 26C343.527 26 344.023 25.8674 344.391 25.6023C344.762 25.3333 344.947 25.0114 344.947 24.6364C344.947 24.3333 344.841 24.0795 344.629 23.875C344.417 23.6667 344.091 23.5114 343.652 23.4091L342.197 23.0682C341.398 22.8788 340.811 22.5852 340.436 22.1875C340.065 21.786 339.879 21.2841 339.879 20.6818C339.879 20.1894 340.018 19.7538 340.294 19.375C340.574 18.9962 340.955 18.6989 341.436 18.483C341.921 18.267 342.47 18.1591 343.084 18.1591C343.947 18.1591 344.625 18.3485 345.118 18.7273C345.614 19.1061 345.966 19.6061 346.175 20.2273ZM352.148 18.2727V19.4091H347.625V18.2727H352.148ZM348.943 16.1818H350.284V24.5C350.284 24.8788 350.339 25.1629 350.449 25.3523C350.563 25.5379 350.706 25.6629 350.881 25.7273C351.059 25.7879 351.246 25.8182 351.443 25.8182C351.591 25.8182 351.712 25.8106 351.807 25.7955C351.902 25.7765 351.977 25.7614 352.034 25.75L352.307 26.9545C352.216 26.9886 352.089 27.0227 351.926 27.0568C351.763 27.0947 351.557 27.1136 351.307 27.1136C350.928 27.1136 350.557 27.0322 350.193 26.8693C349.833 26.7064 349.534 26.4583 349.295 26.125C349.061 25.7917 348.943 25.3712 348.943 24.8636V16.1818ZM356.733 27.2045C356.18 27.2045 355.678 27.1004 355.227 26.892C354.777 26.6799 354.419 26.375 354.153 25.9773C353.888 25.5758 353.756 25.0909 353.756 24.5227C353.756 24.0227 353.854 23.6174 354.051 23.3068C354.248 22.9924 354.511 22.7462 354.841 22.5682C355.17 22.3902 355.534 22.2576 355.932 22.1705C356.333 22.0795 356.737 22.0076 357.142 21.9545C357.672 21.8864 358.102 21.8352 358.432 21.8011C358.765 21.7633 359.008 21.7008 359.159 21.6136C359.314 21.5265 359.392 21.375 359.392 21.1591V21.1136C359.392 20.553 359.239 20.1174 358.932 19.8068C358.629 19.4962 358.169 19.3409 357.551 19.3409C356.911 19.3409 356.409 19.4811 356.045 19.7614C355.682 20.0417 355.426 20.3409 355.278 20.6591L354.006 20.2045C354.233 19.6742 354.536 19.2614 354.915 18.9659C355.297 18.6667 355.714 18.4583 356.165 18.3409C356.619 18.2197 357.066 18.1591 357.506 18.1591C357.786 18.1591 358.108 18.1932 358.472 18.2614C358.839 18.3258 359.193 18.4602 359.534 18.6648C359.879 18.8693 360.165 19.178 360.392 19.5909C360.619 20.0038 360.733 20.5568 360.733 21.25V27H359.392V25.8182H359.324C359.233 26.0076 359.081 26.2102 358.869 26.4261C358.657 26.642 358.375 26.8258 358.023 26.9773C357.67 27.1288 357.241 27.2045 356.733 27.2045ZM356.938 26C357.468 26 357.915 25.8958 358.278 25.6875C358.646 25.4792 358.922 25.2102 359.108 24.8807C359.297 24.5511 359.392 24.2045 359.392 23.8409V22.6136C359.335 22.6818 359.21 22.7443 359.017 22.8011C358.828 22.8542 358.608 22.9015 358.358 22.9432C358.112 22.9811 357.871 23.0152 357.636 23.0455C357.405 23.072 357.218 23.0947 357.074 23.1136C356.725 23.1591 356.4 23.233 356.097 23.3352C355.797 23.4337 355.555 23.5833 355.369 23.7841C355.188 23.9811 355.097 24.25 355.097 24.5909C355.097 25.0568 355.269 25.4091 355.614 25.6477C355.962 25.8826 356.403 26 356.938 26ZM364.521 15.3636V27H363.18V15.3636H364.521Z" fill="black"/>
<path d="M379 7V35" stroke="black" stroke-linecap="round"/>
<path d="M390 21L406 21" stroke="black" stroke-width="1.5" stroke-linecap="round"/>
<path d="M398 13L398 29" stroke="black" stroke-width="1.5" stroke-linecap="round"/>
</g>
<defs>
<clipPath id="clip0_2_140">
<rect width="420" height="213" fill="white"/>
</clipPath>
</defs>
</svg>
