<svg width="324" height="165" viewBox="0 0 324 165" fill="none" xmlns="http://www.w3.org/2000/svg">
<g clip-path="url(#clip0_2_140)">
<rect width="59.4" height="32.4" rx="7.71429" fill="#6EC282"/>
<path d="M16.0247 14.2286H14.9377C14.8734 13.9159 14.7609 13.6412 14.6002 13.4045C14.4424 13.1679 14.2495 12.9692 14.0216 12.8084C13.7966 12.6448 13.5467 12.5221 13.2721 12.4403C12.9974 12.3584 12.711 12.3175 12.413 12.3175C11.8695 12.3175 11.3771 12.4549 10.9359 12.7295C10.4976 13.0042 10.1484 13.4089 9.88831 13.9437C9.63116 14.4784 9.50259 15.1344 9.50259 15.9117C9.50259 16.689 9.63116 17.345 9.88831 17.8797C10.1484 18.4144 10.4976 18.8191 10.9359 19.0938C11.3771 19.3685 11.8695 19.5058 12.413 19.5058C12.711 19.5058 12.9974 19.4649 13.2721 19.3831C13.5467 19.3013 13.7966 19.18 14.0216 19.0193C14.2495 18.8557 14.4424 18.6555 14.6002 18.4188C14.7609 18.1792 14.8734 17.9045 14.9377 17.5948H16.0247C15.9429 18.0536 15.7938 18.4641 15.5776 18.8265C15.3614 19.1888 15.0925 19.4971 14.7711 19.7513C14.4497 20.0026 14.0888 20.194 13.6885 20.3255C13.2911 20.457 12.8659 20.5227 12.413 20.5227C11.6474 20.5227 10.9666 20.3357 10.3704 19.9617C9.77434 19.5877 9.30535 19.0558 8.96347 18.3662C8.62158 17.6766 8.45064 16.8584 8.45064 15.9117C8.45064 14.9649 8.62158 14.1467 8.96347 13.4571C9.30535 12.7675 9.77434 12.2357 10.3704 11.8617C10.9666 11.4877 11.6474 11.3006 12.413 11.3006C12.8659 11.3006 13.2911 11.3664 13.6885 11.4979C14.0888 11.6294 14.4497 11.8222 14.7711 12.0765C15.0925 12.3278 15.3614 12.6346 15.5776 12.9969C15.7938 13.3563 15.9429 13.7669 16.0247 14.2286Z" fill="black"/>
<path d="M27.7714 5.39999V27" stroke="black" stroke-width="0.771429" stroke-linecap="round"/>
<path d="M38.0647 20.5639L46.7924 11.8361" stroke="black" stroke-width="1.15714" stroke-linecap="round"/>
<path d="M38.0647 11.8361L46.7924 20.5639" stroke="black" stroke-width="1.15714" stroke-linecap="round"/>
<rect x="69.4286" width="67.8857" height="32.4" rx="7.71429" fill="#D5EDD1"/>
<path d="M85.4532 14.2286H84.3662C84.3019 13.9159 84.1894 13.6412 84.0287 13.4045C83.8709 13.1679 83.6781 12.9692 83.4502 12.8084C83.2252 12.6448 82.9753 12.5221 82.7006 12.4403C82.426 12.3584 82.1396 12.3175 81.8416 12.3175C81.298 12.3175 80.8057 12.4549 80.3644 12.7295C79.9261 13.0042 79.5769 13.4089 79.3169 13.9437C79.0597 14.4784 78.9312 15.1344 78.9312 15.9117C78.9312 16.689 79.0597 17.345 79.3169 17.8797C79.5769 18.4144 79.9261 18.8191 80.3644 19.0938C80.8057 19.3685 81.298 19.5058 81.8416 19.5058C82.1396 19.5058 82.426 19.4649 82.7006 19.3831C82.9753 19.3013 83.2252 19.18 83.4502 19.0193C83.6781 18.8557 83.8709 18.6555 84.0287 18.4188C84.1894 18.1792 84.3019 17.9045 84.3662 17.5948H85.4532C85.3714 18.0536 85.2224 18.4641 85.0062 18.8265C84.7899 19.1888 84.5211 19.4971 84.1997 19.7513C83.8782 20.0026 83.5174 20.194 83.117 20.3255C82.7196 20.457 82.2945 20.5227 81.8416 20.5227C81.076 20.5227 80.3951 20.3357 79.799 19.9617C79.2029 19.5877 78.7339 19.0558 78.392 18.3662C78.0502 17.6766 77.8792 16.8584 77.8792 15.9117C77.8792 14.9649 78.0502 14.1467 78.392 13.4571C78.7339 12.7675 79.2029 12.2357 79.799 11.8617C80.3951 11.4877 81.076 11.3006 81.8416 11.3006C82.2945 11.3006 82.7196 11.3664 83.117 11.4979C83.5174 11.6294 83.8782 11.8222 84.1997 12.0765C84.5211 12.3278 84.7899 12.6346 85.0062 12.9969C85.2224 13.3563 85.3714 13.7669 85.4532 14.2286ZM90.4182 20.4L91.8909 11.4234H92.7676L91.2948 20.4H90.4182ZM86.3332 17.9104L86.4734 17.0338H93.1708L93.0306 17.9104H86.3332ZM87.2624 20.4L88.7351 11.4234H89.6117L88.139 20.4H87.2624ZM86.8591 14.7896L86.9994 13.913H93.6968L93.5565 14.7896H86.8591Z" fill="black"/>
<path d="M105.686 5.39999V27" stroke="black" stroke-width="0.771429" stroke-linecap="round"/>
<path d="M114.171 16.2L126.514 16.2" stroke="black" stroke-width="1.15714" stroke-linecap="round"/>
<path d="M120.343 10.0286L120.343 22.3714" stroke="black" stroke-width="1.15714" stroke-linecap="round"/>
<rect x="147.343" width="75.6" height="32.4" rx="7.71429" fill="#6EC282"/>
<path d="M163.368 14.2286H162.281C162.216 13.9159 162.104 13.6412 161.943 13.4045C161.785 13.1679 161.592 12.9692 161.364 12.8084C161.139 12.6448 160.89 12.5221 160.615 12.4403C160.34 12.3584 160.054 12.3175 159.756 12.3175C159.212 12.3175 158.72 12.4549 158.279 12.7295C157.84 13.0042 157.491 13.4089 157.231 13.9437C156.974 14.4784 156.845 15.1344 156.845 15.9117C156.845 16.689 156.974 17.345 157.231 17.8797C157.491 18.4144 157.84 18.8191 158.279 19.0938C158.72 19.3685 159.212 19.5058 159.756 19.5058C160.054 19.5058 160.34 19.4649 160.615 19.3831C160.89 19.3013 161.139 19.18 161.364 19.0193C161.592 18.8557 161.785 18.6555 161.943 18.4188C162.104 18.1792 162.216 17.9045 162.281 17.5948H163.368C163.286 18.0536 163.137 18.4641 162.92 18.8265C162.704 19.1888 162.435 19.4971 162.114 19.7513C161.793 20.0026 161.432 20.194 161.031 20.3255C160.634 20.457 160.209 20.5227 159.756 20.5227C158.99 20.5227 158.309 20.3357 157.713 19.9617C157.117 19.5877 156.648 19.0558 156.306 18.3662C155.964 17.6766 155.794 16.8584 155.794 15.9117C155.794 14.9649 155.964 14.1467 156.306 13.4571C156.648 12.7675 157.117 12.2357 157.713 11.8617C158.309 11.4877 158.99 11.3006 159.756 11.3006C160.209 11.3006 160.634 11.3664 161.031 11.4979C161.432 11.6294 161.793 11.8222 162.114 12.0765C162.435 12.3278 162.704 12.6346 162.92 12.9969C163.137 13.3563 163.286 13.7669 163.368 14.2286ZM167.614 18.8221V13.0364H168.595V18.8221H167.614ZM165.212 16.4201V15.4383H170.997V16.4201H165.212ZM175.75 18.8221V13.0364H176.732V18.8221H175.75ZM173.348 16.4201V15.4383H179.134V16.4201H173.348Z" fill="black"/>
<path d="M191.314 5.39999V27" stroke="black" stroke-width="0.771429" stroke-linecap="round"/>
<path d="M201.608 20.5639L210.335 11.8361" stroke="black" stroke-width="1.15714" stroke-linecap="round"/>
<path d="M201.608 11.8361L210.335 20.5639" stroke="black" stroke-width="1.15714" stroke-linecap="round"/>
<rect x="195.171" y="131.914" width="84.0857" height="32.4" rx="7.71429" fill="#D5EDD1"/>
<path d="M203.973 152.314V143.338H207.006C207.707 143.338 208.283 143.457 208.733 143.697C209.183 143.934 209.516 144.26 209.732 144.675C209.948 145.089 210.056 145.561 210.056 146.09C210.056 146.619 209.948 147.088 209.732 147.497C209.516 147.906 209.184 148.228 208.737 148.462C208.29 148.692 207.719 148.808 207.023 148.808H204.569V147.826H206.988C207.468 147.826 207.853 147.756 208.145 147.616C208.441 147.475 208.654 147.277 208.785 147.019C208.92 146.759 208.987 146.45 208.987 146.09C208.987 145.731 208.92 145.417 208.785 145.148C208.651 144.879 208.436 144.672 208.141 144.525C207.846 144.376 207.456 144.302 206.971 144.302H205.06V152.314H203.973ZM208.198 148.282L210.407 152.314H209.145L206.971 148.282H208.198ZM217.759 143.338H218.846V149.281C218.846 149.895 218.701 150.443 218.412 150.925C218.125 151.404 217.721 151.782 217.198 152.06C216.675 152.335 216.061 152.472 215.357 152.472C214.653 152.472 214.039 152.335 213.516 152.06C212.993 151.782 212.587 151.404 212.297 150.925C212.011 150.443 211.868 149.895 211.868 149.281V143.338H212.955V149.194C212.955 149.632 213.051 150.022 213.244 150.364C213.437 150.703 213.712 150.97 214.068 151.166C214.428 151.359 214.857 151.455 215.357 151.455C215.856 151.455 216.286 151.359 216.645 151.166C217.005 150.97 217.28 150.703 217.469 150.364C217.662 150.022 217.759 149.632 217.759 149.194V143.338ZM225.926 145.582C225.873 145.138 225.66 144.793 225.286 144.547C224.912 144.302 224.453 144.179 223.909 144.179C223.512 144.179 223.164 144.244 222.866 144.372C222.571 144.501 222.34 144.677 222.174 144.902C222.01 145.127 221.928 145.383 221.928 145.669C221.928 145.909 221.985 146.115 222.099 146.287C222.216 146.457 222.365 146.599 222.546 146.713C222.727 146.824 222.917 146.916 223.116 146.989C223.315 147.059 223.497 147.116 223.664 147.16L224.576 147.405C224.809 147.467 225.069 147.551 225.356 147.659C225.645 147.768 225.921 147.915 226.184 148.102C226.45 148.286 226.669 148.523 226.842 148.812C227.014 149.101 227.1 149.456 227.1 149.877C227.1 150.362 226.973 150.801 226.719 151.192C226.468 151.584 226.099 151.895 225.614 152.126C225.132 152.357 224.546 152.472 223.857 152.472C223.214 152.472 222.657 152.368 222.187 152.161C221.719 151.953 221.351 151.664 221.082 151.293C220.816 150.922 220.666 150.491 220.631 150H221.753C221.782 150.339 221.896 150.619 222.095 150.842C222.296 151.061 222.551 151.224 222.857 151.332C223.167 151.438 223.5 151.49 223.857 151.49C224.272 151.49 224.644 151.423 224.974 151.289C225.305 151.151 225.566 150.961 225.759 150.719C225.952 150.473 226.048 150.187 226.048 149.86C226.048 149.562 225.965 149.319 225.798 149.132C225.632 148.945 225.413 148.793 225.141 148.676C224.869 148.559 224.576 148.457 224.26 148.369L223.155 148.054C222.454 147.852 221.899 147.564 221.49 147.19C221.081 146.816 220.876 146.327 220.876 145.722C220.876 145.219 221.012 144.781 221.284 144.407C221.559 144.03 221.927 143.738 222.388 143.531C222.853 143.32 223.372 143.215 223.944 143.215C224.523 143.215 225.037 143.319 225.487 143.526C225.937 143.731 226.294 144.011 226.557 144.368C226.823 144.724 226.963 145.129 226.978 145.582H225.926ZM228.397 144.302V143.338H235.129V144.302H232.306V152.314H231.219V144.302H228.397Z" fill="black"/>
<path d="M247.629 137.314V158.914" stroke="black" stroke-width="0.771429" stroke-linecap="round"/>
<path d="M256.114 148.114L268.457 148.114" stroke="black" stroke-width="1.15714" stroke-linecap="round"/>
<path d="M262.286 141.943L262.286 154.286" stroke="black" stroke-width="1.15714" stroke-linecap="round"/>
<rect x="81.7714" y="131.914" width="103.371" height="32.4" rx="7.71429" fill="#6EC282"/>
<path d="M90.5727 152.314V143.338H93.6058C94.3101 143.338 94.8857 143.465 95.3328 143.719C95.7828 143.97 96.1159 144.311 96.3321 144.74C96.5484 145.17 96.6565 145.649 96.6565 146.178C96.6565 146.707 96.5484 147.187 96.3321 147.62C96.1188 148.052 95.7886 148.397 95.3416 148.654C94.8945 148.909 94.3218 149.036 93.6234 149.036H91.4494V148.071H93.5883C94.0705 148.071 94.4576 147.988 94.7498 147.822C95.042 147.655 95.2539 147.43 95.3854 147.147C95.5198 146.86 95.587 146.537 95.587 146.178C95.587 145.819 95.5198 145.497 95.3854 145.214C95.2539 144.93 95.0406 144.708 94.7455 144.547C94.4503 144.384 94.0588 144.302 93.5708 144.302H91.6597V152.314H90.5727ZM97.6361 143.338H98.8809L101.371 147.528H101.476L103.965 143.338H105.21L101.967 148.615V152.314H100.88V148.615L97.6361 143.338ZM106.692 144.302V143.338H113.424V144.302H110.601V152.314H109.514V144.302H106.692ZM115.102 152.314V143.338H116.189V147.335H120.975V143.338H122.062V152.314H120.975V148.299H116.189V152.314H115.102ZM131.812 147.826C131.812 148.773 131.641 149.591 131.3 150.281C130.958 150.97 130.489 151.502 129.893 151.876C129.296 152.25 128.616 152.437 127.85 152.437C127.084 152.437 126.404 152.25 125.808 151.876C125.211 151.502 124.742 150.97 124.401 150.281C124.059 149.591 123.888 148.773 123.888 147.826C123.888 146.879 124.059 146.061 124.401 145.371C124.742 144.682 125.211 144.15 125.808 143.776C126.404 143.402 127.084 143.215 127.85 143.215C128.616 143.215 129.296 143.402 129.893 143.776C130.489 144.15 130.958 144.682 131.3 145.371C131.641 146.061 131.812 146.879 131.812 147.826ZM130.76 147.826C130.76 147.049 130.63 146.393 130.37 145.858C130.113 145.323 129.764 144.919 129.323 144.644C128.884 144.369 128.394 144.232 127.85 144.232C127.307 144.232 126.814 144.369 126.373 144.644C125.935 144.919 125.585 145.323 125.325 145.858C125.068 146.393 124.94 147.049 124.94 147.826C124.94 148.603 125.068 149.259 125.325 149.794C125.585 150.329 125.935 150.733 126.373 151.008C126.814 151.283 127.307 151.42 127.85 151.42C128.394 151.42 128.884 151.283 129.323 151.008C129.764 150.733 130.113 150.329 130.37 149.794C130.63 149.259 130.76 148.603 130.76 147.826ZM140.758 143.338V152.314H139.706L134.815 145.266H134.727V152.314H133.64V143.338H134.692L139.601 150.403H139.689V143.338H140.758Z" fill="black"/>
<path d="M153.514 137.314V158.914" stroke="black" stroke-width="0.771429" stroke-linecap="round"/>
<path d="M163.808 152.478L172.535 143.75" stroke="black" stroke-width="1.15714" stroke-linecap="round"/>
<path d="M163.808 143.75L172.535 152.478" stroke="black" stroke-width="1.15714" stroke-linecap="round"/>
<rect y="131.914" width="71.7429" height="32.4" rx="7.71429" fill="#D5EDD1"/>
<path d="M8.80129 152.314V143.338H11.8344C12.5386 143.338 13.1143 143.465 13.5614 143.719C14.0114 143.97 14.3445 144.311 14.5607 144.74C14.7769 145.17 14.8851 145.649 14.8851 146.178C14.8851 146.707 14.7769 147.187 14.5607 147.62C14.3474 148.052 14.0172 148.397 13.5701 148.654C13.123 148.909 12.5503 149.036 11.8519 149.036H9.67792V148.071H11.8169C12.299 148.071 12.6862 147.988 12.9784 147.822C13.2706 147.655 13.4825 147.43 13.614 147.147C13.7484 146.86 13.8156 146.537 13.8156 146.178C13.8156 145.819 13.7484 145.497 13.614 145.214C13.4825 144.93 13.2691 144.708 12.974 144.547C12.6789 144.384 12.2873 144.302 11.7993 144.302H9.88831V152.314H8.80129ZM16.6361 152.314V143.338H17.7231V147.335H22.5095V143.338H23.5965V152.314H22.5095V148.299H17.7231V152.314H16.6361ZM25.7727 152.314V143.338H28.8058C29.5101 143.338 30.0857 143.465 30.5328 143.719C30.9828 143.97 31.3159 144.311 31.5321 144.74C31.7484 145.17 31.8565 145.649 31.8565 146.178C31.8565 146.707 31.7484 147.187 31.5321 147.62C31.3188 148.052 30.9886 148.397 30.5416 148.654C30.0945 148.909 29.5217 149.036 28.8234 149.036H26.6493V148.071H28.7883C29.2704 148.071 29.6576 147.988 29.9498 147.822C30.242 147.655 30.4539 147.43 30.5854 147.147C30.7198 146.86 30.787 146.537 30.787 146.178C30.787 145.819 30.7198 145.497 30.5854 145.214C30.4539 144.93 30.2406 144.708 29.9454 144.547C29.6503 144.384 29.2588 144.302 28.7708 144.302H26.8597V152.314H25.7727Z" fill="black"/>
<path d="M40.1143 137.314V158.914" stroke="black" stroke-width="0.771429" stroke-linecap="round"/>
<path d="M48.6 148.114L60.9429 148.114" stroke="black" stroke-width="1.15714" stroke-linecap="round"/>
<path d="M54.7714 141.943L54.7714 154.286" stroke="black" stroke-width="1.15714" stroke-linecap="round"/>
<rect x="222.171" y="87.9429" width="75.6" height="32.4" rx="7.71429" fill="#D5EDD1"/>
<path d="M230.973 108.343V99.3662H232.06V107.379H236.232V108.343H230.973ZM243.806 99.3662H244.894V105.31C244.894 105.923 244.749 106.471 244.46 106.953C244.173 107.433 243.769 107.811 243.245 108.089C242.722 108.363 242.109 108.501 241.405 108.501C240.7 108.501 240.087 108.363 239.564 108.089C239.041 107.811 238.634 107.433 238.345 106.953C238.059 106.471 237.916 105.923 237.916 105.31V99.3662H239.003V105.222C239.003 105.66 239.099 106.05 239.292 106.392C239.485 106.731 239.759 106.999 240.116 107.194C240.475 107.387 240.905 107.484 241.405 107.484C241.904 107.484 242.334 107.387 242.693 107.194C243.053 106.999 243.327 106.731 243.517 106.392C243.71 106.05 243.806 105.66 243.806 105.222V99.3662ZM247.432 108.343H246.293L249.589 99.3662H250.711L254.007 108.343H252.867L250.185 100.786H250.115L247.432 108.343ZM247.853 104.836H252.447V105.801H247.853V104.836Z" fill="black"/>
<path d="M266.143 93.3429V114.943" stroke="black" stroke-width="0.771429" stroke-linecap="round"/>
<path d="M274.629 104.143L286.971 104.143" stroke="black" stroke-width="1.15714" stroke-linecap="round"/>
<path d="M280.8 97.9714L280.8 110.314" stroke="black" stroke-width="1.15714" stroke-linecap="round"/>
<rect x="90.2571" y="87.9429" width="121.886" height="32.4" rx="7.71429" fill="#6EC282"/>
<path d="M102.495 99.3662H103.582V105.783C103.582 106.356 103.477 106.842 103.266 107.243C103.056 107.643 102.759 107.947 102.376 108.154C101.994 108.362 101.542 108.466 101.022 108.466C100.531 108.466 100.094 108.376 99.7115 108.198C99.3287 108.017 99.0278 107.76 98.8086 107.427C98.5895 107.094 98.4799 106.698 98.4799 106.239H99.5494C99.5494 106.493 99.6122 106.715 99.7378 106.905C99.8664 107.092 100.042 107.238 100.264 107.344C100.486 107.449 100.739 107.501 101.022 107.501C101.335 107.501 101.601 107.436 101.82 107.304C102.039 107.173 102.206 106.98 102.319 106.725C102.436 106.468 102.495 106.154 102.495 105.783V99.3662ZM106.128 108.343H104.989L108.285 99.3662H109.407L112.703 108.343H111.563L108.881 100.786H108.811L106.128 108.343ZM106.549 104.836H111.143V105.801H106.549V104.836ZM113.626 99.3662L116.291 106.923H116.396L119.061 99.3662H120.2L116.904 108.343H115.782L112.486 99.3662H113.626ZM121.195 108.343H120.056L123.352 99.3662H124.474L127.77 108.343H126.63L123.948 100.786H123.878L121.195 108.343ZM121.616 104.836H126.21V105.801H121.616V104.836ZM134.077 101.61C134.025 101.166 133.811 100.821 133.437 100.576C133.063 100.331 132.605 100.208 132.061 100.208C131.664 100.208 131.316 100.272 131.018 100.401C130.723 100.529 130.492 100.706 130.325 100.931C130.162 101.156 130.08 101.412 130.08 101.698C130.08 101.938 130.137 102.144 130.251 102.316C130.368 102.486 130.517 102.627 130.698 102.741C130.879 102.852 131.069 102.944 131.268 103.017C131.466 103.088 131.649 103.144 131.816 103.188L132.727 103.434C132.961 103.495 133.221 103.58 133.508 103.688C133.797 103.796 134.073 103.944 134.336 104.131C134.602 104.315 134.821 104.551 134.993 104.841C135.166 105.13 135.252 105.485 135.252 105.906C135.252 106.391 135.125 106.829 134.871 107.221C134.619 107.612 134.251 107.924 133.766 108.154C133.284 108.385 132.698 108.501 132.009 108.501C131.366 108.501 130.809 108.397 130.339 108.189C129.871 107.982 129.503 107.693 129.234 107.322C128.968 106.95 128.818 106.519 128.783 106.029H129.905C129.934 106.368 130.048 106.648 130.247 106.87C130.448 107.089 130.702 107.253 131.009 107.361C131.319 107.466 131.652 107.519 132.009 107.519C132.423 107.519 132.796 107.452 133.126 107.317C133.456 107.18 133.718 106.99 133.911 106.747C134.104 106.502 134.2 106.216 134.2 105.888C134.2 105.59 134.117 105.348 133.95 105.161C133.784 104.974 133.565 104.822 133.293 104.705C133.021 104.588 132.727 104.486 132.412 104.398L131.307 104.082C130.606 103.881 130.051 103.593 129.642 103.219C129.233 102.845 129.028 102.356 129.028 101.751C129.028 101.248 129.164 100.81 129.436 100.436C129.71 100.059 130.078 99.7666 130.54 99.5591C131.005 99.3487 131.523 99.2435 132.096 99.2435C132.675 99.2435 133.189 99.3472 133.639 99.5547C134.089 99.7593 134.446 100.04 134.709 100.396C134.974 100.753 135.115 101.157 135.129 101.61H134.077ZM144.263 102.171H143.176C143.111 101.859 142.999 101.584 142.838 101.347C142.68 101.111 142.487 100.912 142.26 100.751C142.035 100.588 141.785 100.465 141.51 100.383C141.235 100.301 140.949 100.26 140.651 100.26C140.107 100.26 139.615 100.398 139.174 100.672C138.736 100.947 138.386 101.352 138.126 101.887C137.869 102.421 137.741 103.077 137.741 103.855C137.741 104.632 137.869 105.288 138.126 105.823C138.386 106.357 138.736 106.762 139.174 107.037C139.615 107.311 140.107 107.449 140.651 107.449C140.949 107.449 141.235 107.408 141.51 107.326C141.785 107.244 142.035 107.123 142.26 106.962C142.487 106.799 142.68 106.598 142.838 106.362C142.999 106.122 143.111 105.847 143.176 105.538H144.263C144.181 105.996 144.032 106.407 143.816 106.769C143.599 107.132 143.33 107.44 143.009 107.694C142.688 107.945 142.327 108.137 141.926 108.268C141.529 108.4 141.104 108.466 140.651 108.466C139.885 108.466 139.205 108.279 138.608 107.905C138.012 107.531 137.543 106.999 137.201 106.309C136.86 105.619 136.689 104.801 136.689 103.855C136.689 102.908 136.86 102.09 137.201 101.4C137.543 100.71 138.012 100.179 138.608 99.8045C139.205 99.4305 139.885 99.2435 140.651 99.2435C141.104 99.2435 141.529 99.3093 141.926 99.4407C142.327 99.5722 142.688 99.7651 143.009 100.019C143.33 100.271 143.599 100.577 143.816 100.94C144.032 101.299 144.181 101.71 144.263 102.171ZM146.019 108.343V99.3662H149.052C149.754 99.3662 150.329 99.486 150.779 99.7256C151.229 99.9623 151.562 100.288 151.779 100.703C151.995 101.118 152.103 101.59 152.103 102.119C152.103 102.648 151.995 103.117 151.779 103.526C151.562 103.935 151.231 104.256 150.784 104.49C150.337 104.721 149.765 104.836 149.07 104.836H146.615V103.855H149.035C149.514 103.855 149.9 103.784 150.192 103.644C150.487 103.504 150.7 103.305 150.832 103.048C150.966 102.788 151.033 102.478 151.033 102.119C151.033 101.759 150.966 101.445 150.832 101.176C150.697 100.908 150.483 100.7 150.188 100.554C149.892 100.405 149.502 100.331 149.017 100.331H147.106V108.343H146.019ZM150.244 104.31L152.454 108.343H151.191L149.017 104.31H150.244ZM155.001 99.3662V108.343H153.914V99.3662H155.001ZM157.181 108.343V99.3662H160.214C160.918 99.3662 161.494 99.4933 161.941 99.7476C162.391 99.9989 162.724 100.339 162.94 100.769C163.156 101.198 163.265 101.678 163.265 102.206C163.265 102.735 163.156 103.216 162.94 103.649C162.727 104.081 162.397 104.426 161.95 104.683C161.503 104.937 160.93 105.064 160.231 105.064H158.057V104.1H160.196C160.678 104.1 161.066 104.017 161.358 103.85C161.65 103.684 161.862 103.459 161.993 103.175C162.128 102.889 162.195 102.566 162.195 102.206C162.195 101.847 162.128 101.526 161.993 101.242C161.862 100.959 161.649 100.737 161.353 100.576C161.058 100.412 160.667 100.331 160.179 100.331H158.268V108.343H157.181ZM164.525 100.331V99.3662H171.257V100.331H168.434V108.343H167.347V100.331H164.525Z" fill="black"/>
<path d="M180.514 93.3429V114.943" stroke="black" stroke-width="0.771429" stroke-linecap="round"/>
<path d="M190.808 108.507L199.535 99.779" stroke="black" stroke-width="1.15714" stroke-linecap="round"/>
<path d="M190.808 99.779L199.535 108.507" stroke="black" stroke-width="1.15714" stroke-linecap="round"/>
<rect y="87.9429" width="80.2286" height="32.4" rx="7.71429" fill="#6EC282"/>
<path d="M12.2377 99.3662H13.3247V105.783C13.3247 106.356 13.2195 106.842 13.0091 107.243C12.7987 107.643 12.5021 107.947 12.1193 108.154C11.7365 108.362 11.2851 108.466 10.7649 108.466C10.274 108.466 9.83717 108.376 9.45438 108.198C9.07158 108.017 8.77061 107.76 8.55145 107.427C8.3323 107.094 8.22272 106.698 8.22272 106.239H9.2922C9.2922 106.493 9.35503 106.715 9.48068 106.905C9.60925 107.092 9.78457 107.238 10.0066 107.344C10.2287 107.449 10.4815 107.501 10.7649 107.501C11.0776 107.501 11.3435 107.436 11.5627 107.304C11.7818 107.173 11.9484 106.98 12.0623 106.725C12.1792 106.468 12.2377 106.154 12.2377 105.783V99.3662ZM15.8713 108.343H14.7316L18.0278 99.3662H19.1498L22.4459 108.343H21.3063L18.6239 100.786H18.5537L15.8713 108.343ZM16.292 104.836H20.8855V105.801H16.292V104.836ZM23.3686 99.3662L26.0335 106.923H26.1387L28.8036 99.3662H29.9433L26.6472 108.343H25.5251L22.229 99.3662H23.3686ZM30.9382 108.343H29.7986L33.0947 99.3662H34.2168L37.5129 108.343H36.3733L33.6908 100.786H33.6207L30.9382 108.343ZM31.359 104.836H35.9525V105.801H31.359V104.836Z" fill="black"/>
<path d="M48.6 93.3429V114.943" stroke="black" stroke-width="0.771429" stroke-linecap="round"/>
<path d="M58.8933 108.507L67.621 99.779" stroke="black" stroke-width="1.15714" stroke-linecap="round"/>
<path d="M58.8933 99.779L67.621 108.507" stroke="black" stroke-width="1.15714" stroke-linecap="round"/>
<rect x="164.314" y="43.9714" width="94.1143" height="32.4" rx="7.71429" fill="#6EC282"/>
<path d="M173.116 64.3714V55.3948H174.203V59.3922H178.989V55.3948H180.076V64.3714H178.989V60.3565H174.203V64.3714H173.116ZM181.761 56.3591V55.3948H188.494V56.3591H185.671V64.3714H184.584V56.3591H181.761ZM190.171 55.3948H191.469L194.519 62.8461H194.625L197.675 55.3948H198.973V64.3714H197.956V57.5513H197.868L195.063 64.3714H194.081L191.276 57.5513H191.188V64.3714H190.171V55.3948ZM201.152 64.3714V55.3948H202.239V63.4071H206.412V64.3714H201.152ZM210.742 64.4942C210.228 64.4942 209.765 64.3919 209.353 64.1873C208.941 63.9828 208.611 63.7023 208.362 63.3458C208.114 62.9893 207.978 62.5831 207.955 62.1273H209.007C209.048 62.5334 209.232 62.8695 209.559 63.1354C209.889 63.3984 210.284 63.5299 210.742 63.5299C211.111 63.5299 211.438 63.4437 211.724 63.2713C212.014 63.0989 212.24 62.8622 212.404 62.5612C212.57 62.2573 212.653 61.914 212.653 61.5312C212.653 61.1396 212.567 60.7904 212.395 60.4836C212.225 60.1739 211.992 59.9299 211.694 59.7516C211.396 59.5734 211.055 59.4828 210.672 59.4799C210.398 59.4769 210.116 59.5193 209.826 59.607C209.537 59.6917 209.299 59.8013 209.112 59.9357L208.095 59.813L208.639 55.3948H213.302V56.3591H209.55L209.235 59.0065H209.287C209.471 58.8604 209.702 58.7391 209.98 58.6427C210.257 58.5463 210.547 58.4981 210.848 58.4981C211.397 58.4981 211.886 58.6295 212.316 58.8925C212.748 59.1526 213.087 59.5091 213.333 59.962C213.581 60.4149 213.705 60.9321 213.705 61.5136C213.705 62.0864 213.577 62.5977 213.32 63.0477C213.066 63.4948 212.715 63.8484 212.268 64.1084C211.821 64.3656 211.312 64.4942 210.742 64.4942Z" fill="black"/>
<path d="M226.8 49.3714V70.9714" stroke="black" stroke-width="0.771429" stroke-linecap="round"/>
<path d="M237.093 64.5353L245.821 55.8076" stroke="black" stroke-width="1.15714" stroke-linecap="round"/>
<path d="M237.093 55.8076L245.821 64.5353" stroke="black" stroke-width="1.15714" stroke-linecap="round"/>
<rect x="84.8571" y="43.9714" width="69.4286" height="32.4" rx="7.71429" fill="#D5EDD1"/>
<path d="M99.7948 58.2C99.6984 57.9049 99.5713 57.6404 99.4135 57.4067C99.2586 57.17 99.073 56.9683 98.8568 56.8018C98.6435 56.6352 98.401 56.5081 98.1292 56.4205C97.8575 56.3328 97.5594 56.289 97.2351 56.289C96.7032 56.289 96.2196 56.4263 95.7843 56.701C95.3489 56.9757 95.0026 57.3804 94.7455 57.9151C94.4883 58.4498 94.3597 59.1058 94.3597 59.8831C94.3597 60.6604 94.4898 61.3164 94.7498 61.8511C95.0099 62.3859 95.362 62.7906 95.8062 63.0653C96.2503 63.3399 96.75 63.4773 97.3052 63.4773C97.8195 63.4773 98.2724 63.3677 98.664 63.1485C99.0584 62.9265 99.3653 62.6138 99.5844 62.2106C99.8065 61.8044 99.9175 61.3266 99.9175 60.7773L100.251 60.8474H97.5506V59.8831H100.969V60.8474C100.969 61.5867 100.812 62.2295 100.496 62.776C100.183 63.3224 99.751 63.7461 99.1987 64.0471C98.6493 64.3451 98.0182 64.4942 97.3052 64.4942C96.5104 64.4942 95.812 64.3071 95.2101 63.9331C94.611 63.5591 94.1435 63.0273 93.8075 62.3377C93.4743 61.6481 93.3078 60.8299 93.3078 59.8831C93.3078 59.1731 93.4028 58.5346 93.5927 57.9677C93.7855 57.3979 94.0573 56.9128 94.408 56.5125C94.7586 56.1122 95.1735 55.8054 95.6528 55.592C96.132 55.3787 96.6594 55.2721 97.2351 55.2721C97.7084 55.2721 98.1497 55.3437 98.5588 55.4869C98.9708 55.6271 99.3375 55.8273 99.6589 56.0873C99.9833 56.3445 100.254 56.6528 100.47 57.0122C100.686 57.3687 100.835 57.7646 100.917 58.2H99.7948ZM110.405 59.8831C110.405 60.8299 110.234 61.6481 109.892 62.3377C109.551 63.0273 109.082 63.5591 108.485 63.9331C107.889 64.3071 107.208 64.4942 106.443 64.4942C105.677 64.4942 104.996 64.3071 104.4 63.9331C103.804 63.5591 103.335 63.0273 102.993 62.3377C102.651 61.6481 102.481 60.8299 102.481 59.8831C102.481 58.9364 102.651 58.1182 102.993 57.4286C103.335 56.739 103.804 56.2071 104.4 55.8331C104.996 55.4591 105.677 55.2721 106.443 55.2721C107.208 55.2721 107.889 55.4591 108.485 55.8331C109.082 56.2071 109.551 56.739 109.892 57.4286C110.234 58.1182 110.405 58.9364 110.405 59.8831ZM109.353 59.8831C109.353 59.1058 109.223 58.4498 108.963 57.9151C108.706 57.3804 108.357 56.9757 107.916 56.701C107.477 56.4263 106.986 56.289 106.443 56.289C105.899 56.289 105.407 56.4263 104.966 56.701C104.527 56.9757 104.178 57.3804 103.918 57.9151C103.661 58.4498 103.533 59.1058 103.533 59.8831C103.533 60.6604 103.661 61.3164 103.918 61.8511C104.178 62.3859 104.527 62.7906 104.966 63.0653C105.407 63.3399 105.899 63.4773 106.443 63.4773C106.986 63.4773 107.477 63.3399 107.916 63.0653C108.357 62.7906 108.706 62.3859 108.963 61.8511C109.223 61.3164 109.353 60.6604 109.353 59.8831Z" fill="black"/>
<path d="M122.657 49.3714V70.9714" stroke="black" stroke-width="0.771429" stroke-linecap="round"/>
<path d="M131.143 60.1714L143.486 60.1714" stroke="black" stroke-width="1.15714" stroke-linecap="round"/>
<path d="M137.314 54L137.314 66.3429" stroke="black" stroke-width="1.15714" stroke-linecap="round"/>
<rect y="43.9714" width="74.8286" height="32.4" rx="7.71429" fill="#6EC282"/>
<path d="M16.0247 58.2H14.9377C14.8734 57.8873 14.7609 57.6127 14.6002 57.376C14.4424 57.1393 14.2495 56.9406 14.0216 56.7799C13.7966 56.6162 13.5467 56.4935 13.2721 56.4117C12.9974 56.3299 12.711 56.289 12.413 56.289C11.8695 56.289 11.3771 56.4263 10.9359 56.701C10.4976 56.9757 10.1484 57.3804 9.88831 57.9151C9.63116 58.4498 9.50259 59.1058 9.50259 59.8831C9.50259 60.6604 9.63116 61.3164 9.88831 61.8511C10.1484 62.3859 10.4976 62.7906 10.9359 63.0653C11.3771 63.3399 11.8695 63.4773 12.413 63.4773C12.711 63.4773 12.9974 63.4364 13.2721 63.3545C13.5467 63.2727 13.7966 63.1515 14.0216 62.9907C14.2495 62.8271 14.4424 62.6269 14.6002 62.3903C14.7609 62.1507 14.8734 61.876 14.9377 61.5662H16.0247C15.9429 62.025 15.7938 62.4356 15.5776 62.7979C15.3614 63.1602 15.0925 63.4685 14.7711 63.7227C14.4497 63.974 14.0888 64.1654 13.6885 64.2969C13.2911 64.4284 12.8659 64.4942 12.413 64.4942C11.6474 64.4942 10.9666 64.3071 10.3704 63.9331C9.77434 63.5591 9.30535 63.0273 8.96347 62.3377C8.62158 61.6481 8.45064 60.8299 8.45064 59.8831C8.45064 58.9364 8.62158 58.1182 8.96347 57.4286C9.30535 56.739 9.77434 56.2071 10.3704 55.8331C10.9666 55.4591 11.6474 55.2721 12.413 55.2721C12.8659 55.2721 13.2911 55.3378 13.6885 55.4693C14.0888 55.6008 14.4497 55.7937 14.7711 56.0479C15.0925 56.2992 15.3614 56.606 15.5776 56.9683C15.7938 57.3278 15.9429 57.7383 16.0247 58.2ZM22.6903 57.639C22.6377 57.1948 22.4244 56.85 22.0504 56.6045C21.6763 56.3591 21.2176 56.2364 20.6741 56.2364C20.2767 56.2364 19.9289 56.3007 19.6309 56.4292C19.3357 56.5578 19.1049 56.7346 18.9383 56.9596C18.7747 57.1846 18.6929 57.4403 18.6929 57.7266C18.6929 57.9662 18.7499 58.1722 18.8638 58.3446C18.9807 58.5141 19.1297 58.6558 19.3109 58.7698C19.4921 58.8808 19.682 58.9729 19.8807 59.0459C20.0794 59.1161 20.262 59.1731 20.4286 59.2169L21.3403 59.4623C21.5741 59.5237 21.8341 59.6084 22.1205 59.7166C22.4098 59.8247 22.6859 59.9722 22.9489 60.1593C23.2148 60.3433 23.434 60.58 23.6064 60.8693C23.7788 61.1586 23.865 61.5136 23.865 61.9344C23.865 62.4195 23.7379 62.8578 23.4836 63.2494C23.2323 63.6409 22.8642 63.9521 22.3791 64.183C21.8969 64.4138 21.3111 64.5292 20.6215 64.5292C19.9786 64.5292 19.4219 64.4255 18.9515 64.218C18.484 64.0106 18.1158 63.7213 17.8469 63.3502C17.581 62.9791 17.4306 62.5481 17.3955 62.0571H18.5176C18.5468 62.3961 18.6607 62.6766 18.8594 62.8987C19.0611 63.1179 19.3153 63.2815 19.6221 63.3896C19.9319 63.4948 20.265 63.5474 20.6215 63.5474C21.0364 63.5474 21.409 63.4802 21.7392 63.3458C22.0694 63.2084 22.3309 63.0185 22.5237 62.776C22.7166 62.5305 22.813 62.2442 22.813 61.9169C22.813 61.6188 22.7297 61.3763 22.5632 61.1893C22.3966 61.0023 22.1775 60.8503 21.9057 60.7334C21.634 60.6166 21.3403 60.5143 21.0247 60.4266L19.9202 60.111C19.2189 59.9094 18.6637 59.6216 18.2546 59.2476C17.8455 58.8735 17.6409 58.3841 17.6409 57.7792C17.6409 57.2766 17.7768 56.8383 18.0486 56.4643C18.3232 56.0873 18.6914 55.7951 19.1531 55.5877C19.6177 55.3773 20.1364 55.2721 20.7091 55.2721C21.2877 55.2721 21.802 55.3758 22.252 55.5833C22.702 55.7878 23.0585 56.0683 23.3215 56.4248C23.5874 56.7813 23.7276 57.186 23.7422 57.639H22.6903ZM30.5613 57.639C30.5087 57.1948 30.2954 56.85 29.9213 56.6045C29.5473 56.3591 29.0885 56.2364 28.545 56.2364C28.1476 56.2364 27.7999 56.3007 27.5019 56.4292C27.2067 56.5578 26.9759 56.7346 26.8093 56.9596C26.6457 57.1846 26.5639 57.4403 26.5639 57.7266C26.5639 57.9662 26.6209 58.1722 26.7348 58.3446C26.8517 58.5141 27.0007 58.6558 27.1819 58.7698C27.3631 58.8808 27.553 58.9729 27.7517 59.0459C27.9504 59.1161 28.133 59.1731 28.2996 59.2169L29.2113 59.4623C29.445 59.5237 29.7051 59.6084 29.9915 59.7166C30.2808 59.8247 30.5569 59.9722 30.8199 60.1593C31.0858 60.3433 31.3049 60.58 31.4773 60.8693C31.6497 61.1586 31.7359 61.5136 31.7359 61.9344C31.7359 62.4195 31.6088 62.8578 31.3546 63.2494C31.1033 63.6409 30.7351 63.9521 30.2501 64.183C29.7679 64.4138 29.1821 64.5292 28.4924 64.5292C27.8496 64.5292 27.2929 64.4255 26.8225 64.218C26.3549 64.0106 25.9868 63.7213 25.7179 63.3502C25.452 62.9791 25.3015 62.5481 25.2665 62.0571H26.3885C26.4178 62.3961 26.5317 62.6766 26.7304 62.8987C26.9321 63.1179 27.1863 63.2815 27.4931 63.3896C27.8028 63.4948 28.1359 63.5474 28.4924 63.5474C28.9074 63.5474 29.2799 63.4802 29.6101 63.3458C29.9403 63.2084 30.2019 63.0185 30.3947 62.776C30.5876 62.5305 30.684 62.2442 30.684 61.9169C30.684 61.6188 30.6007 61.3763 30.4342 61.1893C30.2676 61.0023 30.0484 60.8503 29.7767 60.7334C29.5049 60.6166 29.2113 60.5143 28.8957 60.4266L27.7911 60.111C27.0898 59.9094 26.5347 59.6216 26.1256 59.2476C25.7165 58.8735 25.5119 58.3841 25.5119 57.7792C25.5119 57.2766 25.6478 56.8383 25.9196 56.4643C26.1942 56.0873 26.5624 55.7951 27.0241 55.5877C27.4887 55.3773 28.0074 55.2721 28.5801 55.2721C29.1587 55.2721 29.673 55.3758 30.123 55.5833C30.573 55.7878 30.9295 56.0683 31.1924 56.4248C31.4584 56.7813 31.5986 57.186 31.6132 57.639H30.5613Z" fill="black"/>
<path d="M43.2 49.3714V70.9714" stroke="black" stroke-width="0.771429" stroke-linecap="round"/>
<path d="M53.4933 64.5353L62.221 55.8076" stroke="black" stroke-width="1.15714" stroke-linecap="round"/>
<path d="M53.4933 55.8076L62.221 64.5353" stroke="black" stroke-width="1.15714" stroke-linecap="round"/>
<rect x="232.971" width="91.0286" height="32.4" rx="7.71429" fill="#D5EDD1"/>
<path d="M248.996 14.2286H247.909C247.845 13.9159 247.732 13.6412 247.572 13.4045C247.414 13.1679 247.221 12.9692 246.993 12.8084C246.768 12.6448 246.518 12.5221 246.244 12.4403C245.969 12.3584 245.682 12.3175 245.384 12.3175C244.841 12.3175 244.349 12.4549 243.907 12.7295C243.469 13.0042 243.12 13.4089 242.86 13.9437C242.603 14.4784 242.474 15.1344 242.474 15.9117C242.474 16.689 242.603 17.345 242.86 17.8797C243.12 18.4144 243.469 18.8191 243.907 19.0938C244.349 19.3685 244.841 19.5058 245.384 19.5058C245.682 19.5058 245.969 19.4649 246.244 19.3831C246.518 19.3013 246.768 19.18 246.993 19.0193C247.221 18.8557 247.414 18.6555 247.572 18.4188C247.732 18.1792 247.845 17.9045 247.909 17.5948H248.996C248.914 18.0536 248.765 18.4641 248.549 18.8265C248.333 19.1888 248.064 19.4971 247.743 19.7513C247.421 20.0026 247.06 20.194 246.66 20.3255C246.263 20.457 245.837 20.5227 245.384 20.5227C244.619 20.5227 243.938 20.3357 243.342 19.9617C242.746 19.5877 242.277 19.0558 241.935 18.3662C241.593 17.6766 241.422 16.8584 241.422 15.9117C241.422 14.9649 241.593 14.1467 241.935 13.4571C242.277 12.7675 242.746 12.2357 243.342 11.8617C243.938 11.4877 244.619 11.3006 245.384 11.3006C245.837 11.3006 246.263 11.3664 246.66 11.4979C247.06 11.6294 247.421 11.8222 247.743 12.0765C248.064 12.3278 248.333 12.6346 248.549 12.9969C248.765 13.3563 248.914 13.7669 248.996 14.2286ZM250.612 20.4V13.6675H251.612V14.6844H251.682C251.805 14.3513 252.027 14.081 252.348 13.8735C252.67 13.6661 253.032 13.5623 253.435 13.5623C253.511 13.5623 253.606 13.5638 253.72 13.5667C253.834 13.5696 253.92 13.574 253.979 13.5799V14.6318C253.944 14.623 253.863 14.6099 253.738 14.5924C253.615 14.5719 253.485 14.5617 253.347 14.5617C253.02 14.5617 252.728 14.6304 252.471 14.7677C252.217 14.9021 252.015 15.0891 251.866 15.3287C251.72 15.5654 251.647 15.8357 251.647 16.1396V20.4H250.612ZM256.076 22.9247C255.901 22.9247 255.744 22.9101 255.607 22.8808C255.47 22.8545 255.375 22.8282 255.322 22.8019L255.585 21.8903C255.836 21.9545 256.058 21.9779 256.251 21.9604C256.444 21.9429 256.615 21.8566 256.764 21.7018C256.916 21.5498 257.055 21.3029 257.18 20.961L257.373 20.4351L254.884 13.6675H256.006L257.864 19.0325H257.934L259.793 13.6675H260.915L258.057 21.3818C257.929 21.7295 257.769 22.0174 257.579 22.2453C257.389 22.4761 257.169 22.6471 256.917 22.7581C256.669 22.8691 256.389 22.9247 256.076 22.9247ZM267.049 15.1753L266.12 15.4383C266.061 15.2834 265.975 15.1329 265.861 14.9868C265.75 14.8378 265.598 14.7151 265.405 14.6187C265.213 14.5222 264.966 14.474 264.665 14.474C264.253 14.474 263.909 14.569 263.635 14.7589C263.363 14.9459 263.227 15.1841 263.227 15.4734C263.227 15.7305 263.32 15.9336 263.508 16.0826C263.695 16.2316 263.987 16.3558 264.384 16.4552L265.383 16.7006C265.985 16.8467 266.434 17.0703 266.729 17.3713C267.024 17.6693 267.172 18.0536 267.172 18.524C267.172 18.9097 267.061 19.2545 266.839 19.5584C266.62 19.8623 266.313 20.1019 265.918 20.2773C265.524 20.4526 265.065 20.5403 264.542 20.5403C263.855 20.5403 263.287 20.3912 262.837 20.0932C262.387 19.7951 262.102 19.3597 261.982 18.787L262.964 18.5416C263.058 18.9039 263.234 19.1756 263.494 19.3568C263.757 19.538 264.101 19.6286 264.524 19.6286C265.007 19.6286 265.389 19.5263 265.673 19.3217C265.959 19.1143 266.102 18.8659 266.102 18.5766C266.102 18.3429 266.02 18.1471 265.857 17.9893C265.693 17.8286 265.442 17.7088 265.103 17.6299L263.981 17.3669C263.364 17.2208 262.911 16.9943 262.622 16.6875C262.336 16.3778 262.193 15.9906 262.193 15.526C262.193 15.1461 262.299 14.8101 262.513 14.5179C262.729 14.2256 263.022 13.9963 263.394 13.8297C263.768 13.6631 264.191 13.5799 264.665 13.5799C265.331 13.5799 265.854 13.726 266.234 14.0182C266.617 14.3104 266.888 14.6961 267.049 15.1753ZM271.657 13.6675V14.5441H268.168V13.6675H271.657ZM269.185 12.0545H270.219V18.4714C270.219 18.7636 270.262 18.9828 270.346 19.1289C270.434 19.2721 270.545 19.3685 270.679 19.4182C270.817 19.4649 270.961 19.4883 271.113 19.4883C271.227 19.4883 271.321 19.4825 271.394 19.4708C271.467 19.4562 271.525 19.4445 271.569 19.4357L271.78 20.3649C271.709 20.3912 271.612 20.4175 271.486 20.4438C271.36 20.473 271.201 20.4877 271.008 20.4877C270.716 20.4877 270.43 20.4248 270.149 20.2992C269.871 20.1735 269.641 19.9821 269.456 19.725C269.275 19.4679 269.185 19.1435 269.185 18.7519V12.0545ZM275.194 20.5578C274.767 20.5578 274.38 20.4774 274.032 20.3167C273.685 20.1531 273.409 19.9179 273.204 19.611C273 19.3013 272.897 18.9273 272.897 18.489C272.897 18.1032 272.973 17.7906 273.125 17.551C273.277 17.3084 273.48 17.1185 273.734 16.9812C273.989 16.8438 274.269 16.7416 274.576 16.6743C274.886 16.6042 275.197 16.5487 275.51 16.5078C275.919 16.4552 276.25 16.4157 276.505 16.3894C276.762 16.3602 276.949 16.312 277.066 16.2448C277.185 16.1776 277.245 16.0607 277.245 15.8941V15.8591C277.245 15.4266 277.127 15.0906 276.89 14.851C276.656 14.6114 276.301 14.4916 275.825 14.4916C275.331 14.4916 274.944 14.5997 274.664 14.8159C274.383 15.0321 274.186 15.263 274.072 15.5084L273.09 15.1578C273.265 14.7487 273.499 14.4302 273.791 14.2023C274.087 13.9714 274.408 13.8107 274.756 13.7201C275.106 13.6266 275.451 13.5799 275.79 13.5799C276.006 13.5799 276.255 13.6062 276.535 13.6588C276.819 13.7084 277.092 13.8122 277.355 13.97C277.621 14.1278 277.841 14.3659 278.017 14.6844C278.192 15.0029 278.28 15.4295 278.28 15.9643V20.4H277.245V19.4883H277.193C277.123 19.6344 277.006 19.7907 276.842 19.9573C276.678 20.1239 276.461 20.2656 276.189 20.3825C275.917 20.4993 275.586 20.5578 275.194 20.5578ZM275.352 19.6286C275.761 19.6286 276.106 19.5482 276.386 19.3875C276.67 19.2268 276.883 19.0193 277.026 18.7651C277.172 18.5109 277.245 18.2435 277.245 17.963V17.0162C277.201 17.0688 277.105 17.117 276.956 17.1609C276.81 17.2018 276.64 17.2383 276.448 17.2704C276.258 17.2997 276.072 17.326 275.891 17.3493C275.713 17.3698 275.568 17.3873 275.457 17.4019C275.188 17.437 274.937 17.494 274.703 17.5729C274.472 17.6489 274.285 17.7643 274.142 17.9191C274.002 18.0711 273.932 18.2786 273.932 18.5416C273.932 18.901 274.065 19.1727 274.331 19.3568C274.599 19.538 274.94 19.6286 275.352 19.6286ZM281.202 11.4234V20.4H280.168V11.4234H281.202Z" fill="black"/>
<path d="M292.371 5.39999V27" stroke="black" stroke-width="0.771429" stroke-linecap="round"/>
<path d="M300.857 16.2L313.2 16.2" stroke="black" stroke-width="1.15714" stroke-linecap="round"/>
<path d="M307.029 10.0286L307.029 22.3714" stroke="black" stroke-width="1.15714" stroke-linecap="round"/>
</g>
<defs>
<clipPath id="clip0_2_140">
<rect width="324" height="164.314" fill="white"/>
</clipPath>
</defs>
</svg>
